<?xml version="1.0" encoding="utf-8"?>
<!-- Generator: Adobe Illustrator 23.0.3, SVG Export Plug-In . SVG Version: 6.00 Build 0)  -->
<svg version="1.1" id="Layer_1" xmlns="http://www.w3.org/2000/svg" xmlns:xlink="http://www.w3.org/1999/xlink" x="0px" y="0px"
	 viewBox="0 0 345 231" style="enable-background:new 0 0 345 231;" xml:space="preserve">
<style type="text/css">
	.st0{fill:#FFFFFF;}
</style>
<g>
	<polygon class="st0" points="111.8,96.4 114.3,96.5 144,96.5 146.6,96.4 146.6,81.6 111.8,81.6 	"/>
	<polygon class="st0" points="152,96.4 154.6,96.5 184.2,96.5 186.8,96.4 186.8,81.6 152,81.6 	"/>
	<polygon class="st0" points="343.5,81.6 322.9,81.6 318.3,88.6 328.6,104 	"/>
	<g>
		<path class="st0" d="M295.9,106.7c0-3.7-0.6-7.1-1.9-10.3c-1.3-3.2-3.2-6-5.6-8.4c-2.5-2.5-5.4-4.3-8.7-5.6
			c-3.3-1.3-6.8-1.9-10.5-1.9c-3.8,0-7.3,0.6-10.5,1.9c-3.3,1.3-6.1,3.2-8.6,5.6c-2.5,2.4-4.4,5.2-5.6,8.4
			c-1.3,3.2-1.9,6.6-1.9,10.3s0.6,7.1,1.9,10.3c1.3,3.1,3.2,5.9,5.6,8.3c2.5,2.5,5.4,4.4,8.7,5.7c3.3,1.3,6.7,1.9,10.5,1.9
			c3.7,0,7.2-0.6,10.4-1.9c3.3-1.3,6.2-3.2,8.7-5.6c2.5-2.5,4.4-5.3,5.7-8.5C295.2,113.8,295.9,110.4,295.9,106.7z M275.2,113.5
			c-1.5,1.7-3.6,2.6-6.1,2.6c-2.5,0-4.6-0.9-6.1-2.6c-1.5-1.7-2.3-4-2.3-6.8s0.8-5.1,2.3-6.9c1.6-1.8,3.6-2.6,6.1-2.6
			c2.5,0,4.6,0.9,6.1,2.6c1.5,1.7,2.3,4,2.3,6.9C277.5,109.5,276.8,111.8,275.2,113.5z"/>
		<polygon class="st0" points="288.7,81.6 305.8,107.4 289.8,131.6 310.3,131.6 316.1,122.9 321.9,131.6 342.5,131.6 309.3,81.6 		
			"/>
		<path class="st0" d="M231.8,105.6c2.5-0.5,4.4-1.7,5.8-3.5c1.4-1.8,2-4.1,2-6.8c0-4.3-1.4-7.6-4.3-10c-2.9-2.4-6.9-3.6-12-3.6
			h-23.9v17.7v2.7v29.6h23.9c6.1,0,10.8-1.2,13.9-3.6c3.2-2.4,4.7-5.9,4.7-10.6c0-3.3-0.8-5.9-2.5-7.9
			C237.8,107.6,235.2,106.3,231.8,105.6z M216.1,92.1h2.5c1.5,0,2.7,0.3,3.5,0.9c0.8,0.6,1.2,1.5,1.2,2.7c0,1.2-0.4,2.1-1.2,2.7
			c-0.8,0.6-1.9,0.9-3.5,0.9h-2.5v0V92.1z M223.5,117.7c-1,0.7-2.4,1.1-4.3,1.1h-3.1v-8.3h3.1c1.9,0,3.3,0.4,4.3,1.1
			c1,0.7,1.5,1.7,1.5,3.1C225,116,224.5,117,223.5,117.7z"/>
		<polygon class="st0" points="94,116 76.6,116 99.8,81.6 74.5,81.6 56,123 73.5,123 56,150.5 		"/>
		<polygon class="st0" points="24.6,83.7 19.7,107.3 19.6,107.3 14.2,83.5 -1.5,83.3 13.7,131.8 26.9,131.8 30.3,110.4 30.4,110.4 
			35.4,131.8 49.2,131.8 37,83.6 		"/>
		<rect x="121.2" y="99.5" class="st0" width="15.9" height="32.2"/>
		<rect x="161.4" y="99.5" class="st0" width="15.9" height="32.2"/>
		<path class="st0" d="M88.6,104.7c0.9,3,2.7,8.5,2.7,8.5l9.8,0l-7.7,7.6c0,0,3,10.7,2.9,10.9h20.3L99.6,88.4L88.6,104.7z"/>
		<polygon class="st0" points="47.1,83.3 44.1,96 51.4,123 62.7,83.3 		"/>
		<polygon class="st0" points="71.9,118.6 92.8,86.1 59.3,121.2 68.5,121.2 70.1,121.2 78.6,121.2 66.3,138.1 86.7,118.6 		"/>
	</g>
</g>
</svg>
