<svg id="Layer_1" data-name="Layer 1" xmlns="http://www.w3.org/2000/svg" viewBox="0 0 345 231"><defs><style>.cls-1{fill:#fff;}</style></defs><title>anthem-logo</title><path class="cls-1" d="M0,129.23V110.14c0-1,2-1.87,3.52-2.32a31.77,31.77,0,0,1,8-1h5.16a28.31,28.31,0,0,1,7.72,1c1.94.6,3.66,1.42,3.66,2.54v18.94H18.72v-7H9.36v7Zm9.36-9h9.36V108.72H9.36Z"/><path class="cls-1" d="M139.87,106.77v2h-9.36v20.51h-9.35V108.72H111.8v-2Z"/><path class="cls-1" d="M169.17,106.77h9.36V117h9.35V106.77h9.36v22.46h-9.36V119h-9.35v10.25h-9.36Z"/><path class="cls-1" d="M228.33,110.14c0-1,1.94-1.87,3.52-2.32a31.75,31.75,0,0,1,8-1H256.4v7H247v-5.09h-9.36V117H247v2h-9.36v8.31H247V122.2h9.36v7H239.85a31.29,31.29,0,0,1-8-1c-1.58-.44-3.52-1.34-3.52-2.32Z"/><path class="cls-1" d="M323.83,129.23V108.72h-9.36v20.51H305V108.72h-9.28v20.51H286.4V110.37c0-1,1.5-1.87,3.14-2.4a24.31,24.31,0,0,1,7.86-1.2h24.26a27.75,27.75,0,0,1,8.08,1c2.33.68,3.45,1.35,3.45,2.32v19.09Z"/><path class="cls-1" d="M84.18,125.86s-2.84,3.83-7.09,3.83-8.12-3.83-12.84-3.83a8.18,8.18,0,0,0-6.86,3.62v-20a8.18,8.18,0,0,1,6.86-3.63c4.72,0,8.6,3.84,12.84,3.84s7.09-3.84,7.09-3.84Z"/><path class="cls-1" d="M339.49,101.31a5.63,5.63,0,1,1-5.59,5.61,5.54,5.54,0,0,1,5.59-5.61Zm0,.87a4.76,4.76,0,0,0,0,9.5,4.76,4.76,0,0,0,0-9.5Zm-1,8h-1v-6.26a10.53,10.53,0,0,1,1.77-.15,3.29,3.29,0,0,1,1.94.47,1.49,1.49,0,0,1,.58,1.3,1.56,1.56,0,0,1-1.23,1.52v.05c.55.1.93.6,1,1.52a5.22,5.22,0,0,0,.4,1.55h-1.05a4.58,4.58,0,0,1-.42-1.6,1.17,1.17,0,0,0-1.35-1.1h-.7Zm0-3.47h.73c.82,0,1.52-.3,1.52-1.07,0-.55-.4-1.1-1.52-1.1a4.35,4.35,0,0,0-.73,0Z"/></svg>