<svg id="Layer_1" data-name="Layer 1" xmlns="http://www.w3.org/2000/svg" viewBox="0 0 345 231">
  <title>avpro-logo</title>
  <g>
    <path d="M286.7,127.8h5.19c0,2.53,1.84,4,4.63,4,3,0,5.32-1.76,5.32-4.55v-3.48c-.78,1.89-3,3-5.79,3-6.95,0-9.35-5.32-9.35-10.85,0-6.57,4.11-11,9.22-11a6.43,6.43,0,0,1,5.92,3.17v-2.62h5.57v21.32A10,10,0,0,1,306,132.2h37.06l-14.48-20.36a21,21,0,0,1,.7,5.71H314.74c.18,3.18,2,5.24,4.72,5.24a3.71,3.71,0,0,0,3.78-2.36H329a9.14,9.14,0,0,1-9.26,6.77c-7,0-10.55-3.86-10.55-11.49,0-6.52,3.73-10.72,10.21-10.72a10,10,0,0,1,5.22,1.27l-5.3-7.46H284.9v27.85h-5.36l-.05-2.58a6.41,6.41,0,0,1-5.87,3.13c-5.32,0-9.14-4.2-9.14-11.32,0-6.39,3.22-10.89,8.67-10.89a7.28,7.28,0,0,1,6.26,3.3V98.8h-36v14c1-4.8,4.48-7.76,9.91-7.76,6.48,0,9.91,4.2,9.91,12.56H248.66c.17,3.18,2,5.24,4.71,5.24a3.7,3.7,0,0,0,3.78-2.36h5.75a9.15,9.15,0,0,1-9.27,6.77c-5.87,0-9.28-2.7-10.25-8v13h44.46A8.6,8.6,0,0,1,286.7,127.8Z" style="fill: #fff"/>
    <path d="M275,109.75c-3.26,0-4.81,2.18-4.81,6.52,0,3.77,2,6.39,4.76,6.39s4.72-2.49,4.72-6C279.62,112,278,109.75,275,109.75Z" style="fill: #fff"/>
    <path d="M253.12,109.4c-2.23,0-4.08,1.72-4.29,4.64h8.62C257.36,110.9,255.3,109.4,253.12,109.4Z" style="fill: #fff"/>
    <path d="M314.92,114h8.62c-.09-3.14-2.15-4.64-4.33-4.64S315.13,111.12,314.92,114Z" style="fill: #fff"/>
    <path d="M297.25,109.83c-3.13,0-4.76,2.1-4.76,6.44,0,3.77,2,6.17,4.76,6.17s4.76-2.27,4.76-5.83C302,112,300.42,109.83,297.25,109.83Z" style="fill: #fff"/>
  </g>
  <g>
    <path d="M97.9,163.45,57.29,69H77.66L98,117.2c.86,2.1,1.64,4.11,2.34,6q1-2.84,2.41-6L123,69h20.24l-43,99.9Z" style="fill: #fff"/>
    <path d="M144.17,132.52V88.84h18.66a12.88,12.88,0,0,1,5.76,1.29,15,15,0,0,1,4.5,3.38A16.35,16.35,0,0,1,176,98.25a14,14,0,0,1,1.08,5.35,15.25,15.25,0,0,1-1,5.54,16,16,0,0,1-2.83,4.74,13.43,13.43,0,0,1-4.4,3.32,13.21,13.21,0,0,1-5.73,1.23h-8.87v14.09Zm10.1-22.89h8.25a3.89,3.89,0,0,0,3.08-1.54,6.81,6.81,0,0,0,1.3-4.49,8,8,0,0,0-.4-2.64,5.48,5.48,0,0,0-1.08-1.85A4.24,4.24,0,0,0,163.88,98a4.82,4.82,0,0,0-1.73-.33h-7.88Z" style="fill: #fff"/>
    <path d="M200.77,108.65a18.6,18.6,0,0,0-6.44,1.17,8.22,8.22,0,0,0-4.22,3.32v19.38h-9.85v-32.3h9.05v6.52a14,14,0,0,1,4.34-5.07,10.42,10.42,0,0,1,5.58-1.94,11.35,11.35,0,0,1,1.54.06Z" style="fill: #fff"/>
    <path d="M218.56,133.13a18.89,18.89,0,0,1-7.35-1.35,15.85,15.85,0,0,1-5.45-3.66,15.45,15.45,0,0,1-3.36-5.35,18.37,18.37,0,0,1,0-12.74,15.45,15.45,0,0,1,3.36-5.35,16.2,16.2,0,0,1,5.45-3.69,20.07,20.07,0,0,1,14.68,0,16.37,16.37,0,0,1,5.42,3.69A15.83,15.83,0,0,1,234.7,110a17.59,17.59,0,0,1,1.17,6.37,18,18,0,0,1-1.14,6.37,15.45,15.45,0,0,1-3.36,5.35,15.85,15.85,0,0,1-5.45,3.66,18.94,18.94,0,0,1-7.36,1.35m-7.2-16.73a9,9,0,0,0,2,6.12,6.9,6.9,0,0,0,8,1.69,6.83,6.83,0,0,0,2.25-1.72,8.19,8.19,0,0,0,1.5-2.68,10.12,10.12,0,0,0,.56-3.41,9,9,0,0,0-2-6.12,6.53,6.53,0,0,0-5.12-2.31,6.73,6.73,0,0,0-5.14,2.34,8.39,8.39,0,0,0-1.51,2.68,10.12,10.12,0,0,0-.55,3.41" style="fill: #fff"/>
    <path d="M69.54,160.11l-9.32-21H28.86L18.67,161.65H-1.94L44.48,62.06l46.41,99.59H70.22ZM36.39,122.18H52.93l-8.27-18.8Z" style="fill: #fff"/>
  </g>
</svg>
