<svg id="Layer_1" data-name="Layer 1" xmlns="http://www.w3.org/2000/svg" viewBox="0 0 345 231">
  <title>binary-logo</title>
  <g>
    <path d="M-.31,133.11a4,4,0,0,1-1.18-2.9V101.16A4,4,0,0,1-.31,98.25a3.9,3.9,0,0,1,2.88-1.19H53.25a11.1,11.1,0,0,1,4.45.9,11.57,11.57,0,0,1,3.63,2.43A11.11,11.11,0,0,1,63.79,104a11.38,11.38,0,0,1,.88,4.49,10.77,10.77,0,0,1-.71,4,12.33,12.33,0,0,1-1.91,3.29A12.27,12.27,0,0,1,64,119.05a10.62,10.62,0,0,1,.71,3.9,11.1,11.1,0,0,1-.88,4.44A11.26,11.26,0,0,1,61.33,131a11.92,11.92,0,0,1-3.63,2.43,10.93,10.93,0,0,1-4.45.9H2.57A3.91,3.91,0,0,1-.31,133.11Zm6.94-27.85v6.33H53.68a3.17,3.17,0,0,0,2.2-.87,2.86,2.86,0,0,0,.93-2.21,3.35,3.35,0,0,0-3.22-3.25Zm0,20.84h47a3.14,3.14,0,0,0,2.24-.93,3,3,0,0,0,1-2.22,2.93,2.93,0,0,0-1-2.27,3.19,3.19,0,0,0-2.24-.9h-47Z" style="fill: #fff"/>
    <path d="M284.27,127q-2.44-2-4.82-3.73T274.8,120h.34a10.86,10.86,0,0,0,4.44-.92,11.76,11.76,0,0,0,3.64-2.5,11.61,11.61,0,0,0,2.45-3.69,12.13,12.13,0,0,0,0-9.12,11.57,11.57,0,0,0-2.45-3.68,12.14,12.14,0,0,0-3.64-2.51,11,11,0,0,0-4.44-.91H224.46a3.86,3.86,0,0,0-2.88,1.22,4.13,4.13,0,0,0-1.18,2.87h0v29.94a4.12,4.12,0,0,0,1.19,3,3.82,3.82,0,0,0,2.88,1.22,3.89,3.89,0,0,0,2.83-1.22,4.08,4.08,0,0,0,1.23-3v-7.45a3.22,3.22,0,0,1,.76-2.2,3,3,0,0,1,1.86-1H248a33.24,33.24,0,0,1,8.8,1.15,44.17,44.17,0,0,1,8.17,3.06,63,63,0,0,1,7.58,4.39q3.63,2.44,7.1,5.09a4.46,4.46,0,0,0,2.88,1.22,3.82,3.82,0,0,0,2.87-1.22,4.16,4.16,0,0,0,1.19-3,3.58,3.58,0,0,0-.68-2.15A7.72,7.72,0,0,0,284.27,127Zm-53.64-15.35a10,10,0,0,0-2.15.22v-6.72h47a3.32,3.32,0,0,1,3.21,3.25,3.07,3.07,0,0,1-1,2.33,3.19,3.19,0,0,1-2.24.92Z" style="fill: #fff"/>
    <path d="M80.1,132.77a4.07,4.07,0,0,1-6.94-2.88V101.12a4.07,4.07,0,1,1,8.13,0v28.77A4,4,0,0,1,80.1,132.77Z" style="fill: #fff"/>
    <path d="M141.15,98.24a3.08,3.08,0,0,1,4.85,0,4.34,4.34,0,0,1,1,2.88v24.62a8.84,8.84,0,0,1-2,5.84,6.1,6.1,0,0,1-4.89,2.37,6,6,0,0,1-2-.34,6.51,6.51,0,0,1-1.75-.93L103.76,109c-.9-.62-1.64-1.12-2.24-1.48a3,3,0,0,0-1.47-.55c-.71,0-1.16.53-1.35,1.6a30,30,0,0,0-.28,4.66v16.67a4.39,4.39,0,0,1-1,2.88A3.08,3.08,0,0,1,95,134a3.12,3.12,0,0,1-2.43-1.18,4.38,4.38,0,0,1-1-2.88V105.27a8.86,8.86,0,0,1,2-5.85,6.12,6.12,0,0,1,4.89-2.36,6.35,6.35,0,0,1,2,.33,6.82,6.82,0,0,1,1.75.93L134.8,122c.9.62,1.65,1.11,2.25,1.48a2.93,2.93,0,0,0,1.46.55c.71,0,1.17-.54,1.36-1.61a28.61,28.61,0,0,0,.28-4.65V101.12A4.3,4.3,0,0,1,141.15,98.24Z" style="fill: #fff"/>
    <path d="M342.47,97.05a3.7,3.7,0,0,0-2.66-1.21,3.64,3.64,0,0,0-2.71,1L317.86,115l-.42,0h-.05L298.18,96.88a3.7,3.7,0,0,0-2.72-1,3.74,3.74,0,0,0-2.67,1.21,3.8,3.8,0,0,0,.16,5.37l19.62,18.47a3.76,3.76,0,0,0,.81.58v11.47a1.83,1.83,0,0,0,1.18,1.57,6.68,6.68,0,0,0,5.75,0,1.84,1.84,0,0,0,1.19-1.57V121.67a3.61,3.61,0,0,0,1.19-.78l19.62-18.47a3.73,3.73,0,0,0,1.2-2.66A3.68,3.68,0,0,0,342.47,97.05Z" style="fill: #fff"/>
    <path d="M213.13,129.17a5.78,5.78,0,0,0-.85-1.31l-20.57-27.51a9.67,9.67,0,0,0-3.72-3,11.11,11.11,0,0,0-9.9.13,10.78,10.78,0,0,0-3.8,3.17l-20.56,27.67a3.52,3.52,0,0,0-.84,2.45,4,4,0,0,0,7.19,2.54l6.59-8.75h33l6.5,8.66a3.76,3.76,0,0,0,3.21,1.62,4.06,4.06,0,0,0,4.07-4.07A3.71,3.71,0,0,0,213.13,129.17ZM172.6,116.65l7.36-9.78a10.13,10.13,0,0,1,1.39-1.47,2.69,2.69,0,0,1,1.82-.82,2.65,2.65,0,0,1,1.82.82,15.83,15.83,0,0,1,1.48,1.47l7.33,9.78Z" style="fill: #fff"/>
  </g>
</svg>
