<svg id="Layer_1" data-name="Layer 1" xmlns="http://www.w3.org/2000/svg" viewBox="0 0 345 231"><defs><style>.cls-1{fill:#fff;}</style></defs><title>control4-logo</title><path class="cls-1" d="M0,116.94v-.12C0,104.33,9.8,94,23.44,94a24.72,24.72,0,0,1,18.07,7l-3.57,3.66c-3.91-3.54-8.28-6.06-14.57-6.06a17.71,17.71,0,0,0-17.94,18.1v.13A17.81,17.81,0,0,0,23.37,135c6.36,0,10.53-2.33,15-6.37l3.45,3.22c-4.84,4.67-10.13,7.76-18.54,7.76C9.87,139.65,0,129.62,0,116.94"/><path class="cls-1" d="M51.85,122.74v-.12c0-9.21,7.54-17,17.87-17s17.81,7.69,17.81,16.9v.13c0,9.21-7.61,17-17.94,17S51.85,132,51.85,122.74m30.45,0v-.12a12.63,12.63,0,0,0-12.71-12.74,12.3,12.3,0,0,0-12.51,12.61v.13a12.51,12.51,0,0,0,12.64,12.67A12.3,12.3,0,0,0,82.3,122.74"/><path class="cls-1" d="M99.1,106.29h5.1V112a13.07,13.07,0,0,1,11.72-6.37c8.27,0,13.1,5.3,13.1,13.06v20.24h-5.09v-19c0-6.06-3.45-9.84-9.47-9.84s-10.26,4.1-10.26,10.21v18.67H99.1v-32.6"/><path class="cls-1" d="M145.4,130.25V110.58h-4.77v-4.3h4.77V96.45h5.1v9.83h10.86v4.3H150.5v19c0,4,2.31,5.42,5.76,5.42a11.14,11.14,0,0,0,5-1.13v4.16a13.38,13.38,0,0,1-6.15,1.39c-5.5,0-9.67-2.59-9.67-9.21"/><path class="cls-1" d="M172.72,106.29h5.1v8.51c2.52-5.42,7.48-9.33,14-9.08V111h-.4c-7.48,0-13.57,5.11-13.57,15v13h-5.1v-32.6"/><path class="cls-1" d="M198.33,122.74v-.12c0-9.21,7.55-17,17.87-17S234,113.28,234,122.49v.13c0,9.21-7.61,17-17.94,17s-17.74-7.7-17.74-16.91m30.45,0v-.12a12.62,12.62,0,0,0-12.71-12.74,12.31,12.31,0,0,0-12.51,12.61v.13a12.51,12.51,0,0,0,12.64,12.67,12.3,12.3,0,0,0,12.58-12.55"/><rect class="cls-1" x="246.04" y="92.85" width="5.1" height="46.04"/><polygon class="cls-1" points="287.87 125.92 313.08 125.93 313.08 141.64 320.8 141.64 320.8 119.45 296.57 119.47 317.12 91.06 307.51 91.06 286.09 120.84 287.87 125.92"/><path class="cls-1" d="M314.62,151.72a40.12,40.12,0,0,1-7.85.69,35.28,35.28,0,1,1,33.86-45.22,37.85,37.85,0,1,0-26,44.53"/><path class="cls-1" d="M337.81,88.43v0a3.6,3.6,0,1,1,7.19,0v0a3.6,3.6,0,1,1-7.19,0Zm6.78,0v0a3.19,3.19,0,1,0-6.37,0v0a3.16,3.16,0,0,0,3.19,3.2A3.2,3.2,0,0,0,344.59,88.41Zm-4.53-1.88h1.61c.75,0,1.35.39,1.35,1.11a1.13,1.13,0,0,1-.89,1.1l1,1.4h-.72l-.91-1.32h-.87v1.32h-.58Zm1.55,1.82c.52,0,.81-.27.81-.66s-.31-.64-.81-.64h-1v1.3Z"/></svg>