<svg id="Layer_1" data-name="Layer 1" xmlns="http://www.w3.org/2000/svg" xmlns:xlink="http://www.w3.org/1999/xlink" viewBox="0 0 325.97 333.05"><defs><style>.cls-1{fill:#f5eb11;}.cls-2{opacity:0.66;fill:url(#New_Gradient_Swatch_5);}.cls-3{fill:#fff;}.cls-4{fill:none;stroke:#808184;stroke-miterlimit:10;stroke-width:2px;}.cls-5{fill:#a61e29;}.cls-5,.cls-7{fill-rule:evenodd;}.cls-6{fill:#666;}.cls-7{fill:#c12334;}</style><linearGradient id="New_Gradient_Swatch_5" x1="163.21" y1="91.58" x2="163.21" y2="331.71" gradientUnits="userSpaceOnUse"><stop offset="0" stop-color="#a61e29"/><stop offset="0.12" stop-color="#d55c28"/><stop offset="0.31" stop-color="#f1932d"/><stop offset="0.64" stop-color="#e0712a"/><stop offset="0.89" stop-color="#d55c28"/><stop offset="1" stop-color="#a61e29"/></linearGradient></defs><title>dealer-status-logos</title><path class="cls-1" d="M325,310.59a21.32,21.32,0,0,1-21.43,21.12H22.88c-11.83,0-21.42-9.48-21.42-18.07V107.15c0-8.6,9.59-15.57,21.42-15.57H303.54c11.84,0,21.43,7,21.43,15.57Z"/><path class="cls-2" d="M325,310.59c0,12.22-9.59,21.12-21.43,21.12H22.88c-11.83,0-21.42-9.48-21.42-18.07V107.15c0-8.6,9.59-15.57,21.42-15.57H303.54c11.84,0,21.43,7,21.43,15.57Z"/><path class="cls-3" d="M324.94,108.54H1V22.45A21.45,21.45,0,0,1,22.42,1H303.48a21.45,21.45,0,0,1,21.46,21.45Z"/><path class="cls-4" d="M325,310.59a21.46,21.46,0,0,1-21.46,21.46H22.45A21.45,21.45,0,0,1,1,310.59V22.45A21.45,21.45,0,0,1,22.45,1H303.51A21.45,21.45,0,0,1,325,22.45Z"/><path class="cls-3" d="M25,57.09V57c0-10,7.81-18.2,18.67-18.2A19.69,19.69,0,0,1,58,44.38l-2.85,2.91c-3.11-2.81-6.59-4.82-11.6-4.82a14.1,14.1,0,0,0-14.3,14.41V57a14.2,14.2,0,0,0,14.3,14.52c5.06,0,8.39-1.86,11.92-5.08L58.25,69c-3.85,3.72-8.07,6.19-14.77,6.19-10.65,0-18.51-8-18.51-18.09"/><path class="cls-3" d="M66.27,61.71v-.1c0-7.34,6-13.57,14.24-13.57S94.7,54.17,94.7,61.51v.1c0,7.33-6.06,13.57-14.29,13.57S66.27,69,66.27,61.71m24.27,0v-.1A10.06,10.06,0,0,0,80.41,51.46a9.8,9.8,0,0,0-10,10v.1a10,10,0,0,0,10.07,10.1,9.82,9.82,0,0,0,10-10"/><path class="cls-3" d="M103.92,48.6H108v4.52A10.4,10.4,0,0,1,117.31,48c6.6,0,10.45,4.23,10.45,10.4V74.57H123.7V59.4c0-4.83-2.74-7.84-7.54-7.84A7.83,7.83,0,0,0,108,59.7V74.57h-4.06v-26"/><path class="cls-3" d="M140.81,67.69V52H137V48.6h3.8V40.76h4.06V48.6h8.65V52h-8.65V67.18c0,3.17,1.84,4.33,4.58,4.33a8.92,8.92,0,0,0,4-.91v3.32a10.64,10.64,0,0,1-4.9,1.1c-4.38,0-7.7-2.06-7.7-7.33"/><path class="cls-3" d="M162.58,48.6h4v6.78c2-4.32,6-7.44,11.13-7.23v4.16h-.32c-5.95,0-10.81,4.07-10.81,11.91V74.57h-4v-26"/><path class="cls-3" d="M183,61.71v-.1C183,54.27,189,48,197.22,48s14.18,6.13,14.18,13.47v.1c0,7.33-6.07,13.57-14.29,13.57S183,69,183,61.71m24.26,0v-.1a10,10,0,0,0-10.12-10.15,9.8,9.8,0,0,0-10,10v.1a10,10,0,0,0,10.08,10.1,9.81,9.81,0,0,0,10-10"/><rect class="cls-3" x="220.98" y="37.89" width="4.06" height="36.68"/><polygon class="cls-5" points="254.3 64.23 274.39 64.25 274.39 76.76 280.54 76.76 280.54 59.08 261.23 59.09 277.61 36.47 269.95 36.47 252.89 60.19 254.3 64.23"/><path class="cls-5" d="M275.62,84.8a32.59,32.59,0,0,1-6.25.55,28.11,28.11,0,1,1,27-36A30.15,30.15,0,1,0,275.62,84.8"/><path class="cls-3" d="M25,57.09V57c0-10,7.81-18.2,18.67-18.2A19.69,19.69,0,0,1,58,44.38l-2.85,2.91c-3.11-2.81-6.59-4.82-11.6-4.82a14.1,14.1,0,0,0-14.3,14.41V57a14.2,14.2,0,0,0,14.3,14.52c5.06,0,8.39-1.86,11.92-5.08L58.25,69c-3.85,3.72-8.07,6.19-14.77,6.19-10.65,0-18.51-8-18.51-18.09"/><path class="cls-3" d="M66.27,61.71v-.1c0-7.34,6-13.57,14.24-13.57S94.7,54.17,94.7,61.51v.1c0,7.33-6.06,13.57-14.29,13.57S66.27,69,66.27,61.71m24.27,0v-.1A10.06,10.06,0,0,0,80.41,51.46a9.8,9.8,0,0,0-10,10v.1a10,10,0,0,0,10.07,10.1,9.82,9.82,0,0,0,10-10"/><path class="cls-3" d="M103.92,48.6H108v4.52A10.4,10.4,0,0,1,117.31,48c6.6,0,10.45,4.23,10.45,10.4V74.57H123.7V59.4c0-4.83-2.74-7.84-7.54-7.84A7.83,7.83,0,0,0,108,59.7V74.57h-4.06v-26"/><path class="cls-3" d="M140.81,67.69V52H137V48.6h3.8V40.76h4.06V48.6h8.65V52h-8.65V67.18c0,3.17,1.84,4.33,4.58,4.33a8.92,8.92,0,0,0,4-.91v3.32a10.64,10.64,0,0,1-4.9,1.1c-4.38,0-7.7-2.06-7.7-7.33"/><path class="cls-3" d="M162.58,48.6h4.06v6.78c2-4.32,6-7.44,11.12-7.23v4.16h-.32c-5.95,0-10.8,4.07-10.8,11.91V74.57h-4.06v-26"/><path class="cls-3" d="M183,61.71v-.1C183,54.27,189,48,197.22,48s14.18,6.13,14.18,13.47v.1c0,7.33-6.07,13.57-14.29,13.57S183,69,183,61.71m24.26,0v-.1a10,10,0,0,0-10.12-10.15,9.8,9.8,0,0,0-10,10v.1a10,10,0,0,0,10.08,10.1,9.81,9.81,0,0,0,10-10"/><rect class="cls-3" x="220.98" y="37.89" width="4.06" height="36.68"/><polygon class="cls-5" points="254.3 64.23 274.38 64.25 274.38 76.76 280.54 76.76 280.54 59.08 261.23 59.09 277.61 36.47 269.95 36.47 252.89 60.19 254.3 64.23"/><path class="cls-5" d="M275.62,84.8a32.66,32.66,0,0,1-6.25.55,28.11,28.11,0,1,1,27-36A30.15,30.15,0,1,0,275.62,84.8"/><path class="cls-6" d="M25,57.09V57c0-10,7.8-18.2,18.67-18.2A19.69,19.69,0,0,1,58,44.38l-2.85,2.91c-3.11-2.81-6.59-4.82-11.61-4.82A14.1,14.1,0,0,0,29.29,56.88V57A14.19,14.19,0,0,0,43.58,71.51c5.07,0,8.39-1.86,11.93-5.08L58.25,69c-3.85,3.72-8.07,6.19-14.77,6.19-10.65,0-18.51-8-18.51-18.09"/><path class="cls-6" d="M66.27,61.71v-.1c0-7.34,6-13.57,14.24-13.57S94.7,54.17,94.7,61.51v.1c0,7.33-6.06,13.57-14.29,13.57S66.27,69,66.27,61.71m24.26,0v-.1A10,10,0,0,0,80.41,51.46a9.8,9.8,0,0,0-10,10v.1a10,10,0,0,0,10.07,10.1,9.81,9.81,0,0,0,10-10"/><path class="cls-6" d="M103.92,48.6H108v4.52A10.4,10.4,0,0,1,117.31,48c6.6,0,10.45,4.23,10.45,10.4V74.57H123.7V59.4c0-4.83-2.75-7.84-7.54-7.84A7.83,7.83,0,0,0,108,59.7V74.57h-4.06v-26"/><path class="cls-6" d="M140.81,67.69V52H137V48.6h3.8V40.76h4.06V48.6h8.65V52h-8.65V67.18c0,3.17,1.84,4.33,4.58,4.33a8.92,8.92,0,0,0,4-.91v3.32A10.65,10.65,0,0,1,148.5,75c-4.37,0-7.69-2.06-7.69-7.33"/><path class="cls-6" d="M162.58,48.6h4v6.78c2-4.32,6-7.44,11.13-7.23v4.16h-.32c-5.95,0-10.81,4.07-10.81,11.91V74.57h-4v-26"/><path class="cls-6" d="M183,61.71v-.1C183,54.27,189,48,197.22,48s14.18,6.13,14.18,13.47v.1c0,7.33-6.07,13.57-14.3,13.57S183,69,183,61.71m24.26,0v-.1A10.05,10.05,0,0,0,197.1,51.46a9.8,9.8,0,0,0-10,10v.1a10,10,0,0,0,10.09,10.1,9.81,9.81,0,0,0,10-10"/><rect class="cls-6" x="220.98" y="37.89" width="4.06" height="36.68"/><polygon class="cls-7" points="254.3 64.23 274.38 64.25 274.38 76.76 280.54 76.76 280.54 59.08 261.23 59.09 277.61 36.47 269.95 36.47 252.89 60.19 254.3 64.23"/><path class="cls-7" d="M275.62,84.8a32.66,32.66,0,0,1-6.25.55,28.11,28.11,0,1,1,27-36A30.15,30.15,0,1,0,275.62,84.8"/><path class="cls-3" d="M50.82,138.11h3.4L68.9,170.54H65L61.21,162H43.69l-3.82,8.51H36.15Zm9,20.65-7.32-16.42-7.35,16.42Z"/><path class="cls-3" d="M73.05,161.52V146.76h3.54v13.88c0,4.42,2.39,7.18,6.57,7.18s7.13-3,7.13-7.45V146.76h3.5v23.78h-3.5V166.4A9.06,9.06,0,0,1,82.15,171C76.4,171,73.05,167.18,73.05,161.52Z"/><path class="cls-3" d="M103,164.24V149.88H99.67v-3.12H103v-7.18h3.54v7.18h7.54v3.12h-7.54v13.89c0,2.9,1.61,4,4,4a7.41,7.41,0,0,0,3.45-.83v3a8.93,8.93,0,0,1-4.28,1C105.88,171,103,169.06,103,164.24Z"/><path class="cls-3" d="M120.31,137h3.54v13.93a9,9,0,0,1,8.14-4.64c5.75,0,9.11,3.86,9.11,9.52v14.77h-3.54v-13.9c0-4.41-2.39-7.17-6.58-7.17s-7.13,3-7.13,7.45v13.62h-3.54Z"/><path class="cls-3" d="M147.16,158.76v-.09a12.4,12.4,0,0,1,24.79-.09v.09a12.35,12.35,0,0,1-12.46,12.42A12.18,12.18,0,0,1,147.16,158.76Zm21.16,0v-.09a9,9,0,0,0-8.83-9.29c-5.15,0-8.69,4.18-8.69,9.2v.09a8.92,8.92,0,0,0,8.78,9.24C164.73,167.91,168.32,163.77,168.32,158.76Z"/><path class="cls-3" d="M178.33,146.76h3.55V153c1.74-4,5.19-6.8,9.7-6.62v3.82h-.27c-5.2,0-9.43,3.72-9.43,10.9v9.48h-3.55Z"/><path class="cls-3" d="M197.05,137.65h4v3.91h-4Zm.23,9.11h3.54v23.78h-3.54Z"/><path class="cls-3" d="M207.67,168.28l15.77-18.53H208.22v-3h20.05V149l-15.82,18.54h15.82v3h-20.6Z"/><path class="cls-3" d="M244.41,168a9.86,9.86,0,0,0,7.5-3.35l2.2,2a12.29,12.29,0,0,1-9.79,4.46c-6.54,0-11.87-5-11.87-12.42,0-6.9,4.83-12.42,11.41-12.42,7,0,11.08,5.61,11.08,12.6a12.38,12.38,0,0,1-.05,1.24H236A8.3,8.3,0,0,0,244.41,168Zm6.94-10.76c-.41-4.32-2.89-8-7.58-8-4.1,0-7.23,3.4-7.73,8Z"/><path class="cls-3" d="M259.76,158.72v-.1c0-7.77,5.66-12.37,11.36-12.37a10.72,10.72,0,0,1,9.11,5.06V137h3.54v33.58h-3.54v-4.79c-1.93,2.85-4.74,5.29-9.11,5.29C265.42,171,259.76,166.53,259.76,158.72Zm20.61-.05v-.09a8.84,8.84,0,0,0-8.6-9.16c-4.6,0-8.38,3.41-8.38,9.16v.09c0,5.61,3.87,9.2,8.38,9.2A8.89,8.89,0,0,0,280.37,158.67Z"/><path class="cls-3" d="M82.42,216.24v-.11a19.13,19.13,0,0,1,19.37-19.42c6.54,0,10.57,1.82,14.43,5.09l-4.19,5a14.68,14.68,0,0,0-10.51-4c-6.92,0-12.18,6.06-12.18,13.25v.11c0,7.72,5.1,13.41,12.77,13.41a15.4,15.4,0,0,0,9.07-2.84v-7h-9.61v-5.74h16V229.7a23.91,23.91,0,0,1-15.66,5.85C90.15,235.55,82.42,227.18,82.42,216.24Z"/><path class="cls-3" d="M124.47,216.24v-.11a19.24,19.24,0,0,1,19.69-19.42c11.54,0,19.59,8.74,19.59,19.31v.11a19.24,19.24,0,0,1-19.69,19.42C132.52,235.55,124.47,226.81,124.47,216.24Zm32.35,0v-.11c0-7.3-5.31-13.36-12.76-13.36S131.4,208.72,131.4,216v.11c0,7.29,5.31,13.36,12.76,13.36S156.82,223.53,156.82,216.24Z"/><path class="cls-3" d="M171.73,197.35h6.6V228.9h19.74v6H171.73Z"/><path class="cls-3" d="M204.94,197.35h14c11.8,0,20,8.1,20,18.67v.11c0,10.57-8.16,18.78-20,18.78h-14Zm14,31.55c7.88,0,13-5.31,13-12.66v-.11c0-7.35-5.16-12.77-13-12.77h-7.41V228.9Z"/><path class="cls-3" d="M35.21,257.44H46.39c10.12,0,17.12,6.95,17.12,16v.09c0,9.07-7,16.11-17.12,16.11H35.21Zm11.18,28.85c8.15,0,13.34-5.52,13.34-12.65v-.1c0-7.13-5.19-12.74-13.34-12.74H38.85v25.49Z"/><path class="cls-3" d="M80.64,287.12a9.85,9.85,0,0,0,7.5-3.36l2.21,2a12.31,12.31,0,0,1-9.8,4.46c-6.54,0-11.87-5-11.87-12.42,0-6.9,4.83-12.42,11.41-12.42,7,0,11.08,5.61,11.08,12.6,0,.32,0,.69,0,1.24H72.27C72.77,284.22,76.45,287.12,80.64,287.12Zm7-10.77c-.42-4.32-2.9-8-7.59-8-4.1,0-7.23,3.4-7.73,8Z"/><path class="cls-3" d="M95.05,282.75v-.1c0-5.1,4.14-7.77,10.17-7.77a24.92,24.92,0,0,1,7.27,1v-.73c0-4.24-2.58-6.45-7-6.45a16.46,16.46,0,0,0-7.23,1.71l-1-2.9a19.42,19.42,0,0,1,8.64-2c3.36,0,6,.92,7.69,2.63s2.48,3.95,2.48,7v14.54h-3.49V286.1a10.44,10.44,0,0,1-8.56,4C99.47,290.15,95.05,287.62,95.05,282.75Zm17.48-1.84V278.7a24.35,24.35,0,0,0-7-1c-4.41,0-6.94,1.93-6.94,4.78v.09c0,3,2.76,4.74,6,4.74C109,287.3,112.53,284.68,112.53,280.91Z"/><path class="cls-3" d="M122.37,256.06h3.55v33.59h-3.55Z"/><path class="cls-3" d="M143.92,287.12a9.85,9.85,0,0,0,7.5-3.36l2.21,2a12.3,12.3,0,0,1-9.8,4.46c-6.53,0-11.87-5-11.87-12.42,0-6.9,4.83-12.42,11.41-12.42,7,0,11.09,5.61,11.09,12.6a12.38,12.38,0,0,1-.05,1.24H135.55C136.06,284.22,139.74,287.12,143.92,287.12Zm7-10.77c-.41-4.32-2.9-8-7.59-8-4.09,0-7.22,3.4-7.73,8Z"/><path class="cls-3" d="M160.24,265.86h3.55v6.21c1.74-3.95,5.19-6.81,9.7-6.62v3.82h-.27c-5.2,0-9.43,3.72-9.43,10.9v9.48h-3.55Z"/><path class="cls-3" d="M191,286.8l11.69-10.32c4.92-4.42,6.72-6.9,6.72-10.12,0-3.78-3-6.17-6.49-6.17-3.68,0-6.08,1.93-8.66,5.52l-2.67-1.93c2.9-4.33,5.94-6.86,11.61-6.86s10,3.87,10,9.11v.09c0,4.7-2.48,7.6-8.14,12.53l-8.61,7.64h17.08v3.31H191Z"/><path class="cls-3" d="M216.66,273.58v-.09c0-9,5.38-16.66,13.67-16.66s13.54,7.55,13.54,16.57v.09c0,9-5.34,16.67-13.63,16.67S216.66,282.61,216.66,273.58Zm23.43,0v-.09c0-7-3.87-13.35-9.85-13.35s-9.81,6.17-9.81,13.26v.09c0,7,3.87,13.35,9.9,13.35S240.09,280.63,240.09,273.58Z"/><path class="cls-3" d="M252.07,260.92,246,262.81l-.87-2.95,7.87-2.71h2.67V289.6h-3.59Z"/><path class="cls-3" d="M277,281.9H260.31l-.91-2.59,18-21.85h3.13v21.45h4.94v3h-4.94v7.52H277Zm0-3V262.54l-13.33,16.37Z"/><path class="cls-6" d="M295,34.53v0a2.79,2.79,0,1,1,5.58,0v0a2.81,2.81,0,0,1-2.79,2.81A2.78,2.78,0,0,1,295,34.53Zm5.26,0v0a2.47,2.47,0,1,0-4.94,0v0a2.47,2.47,0,1,0,4.94,0ZM296.72,33H298c.63,0,1.09.31,1.09.9a.85.85,0,0,1-.66.87l.76,1.07h-.66l-.67-1h-.6v1h-.54ZM298,34.44c.37,0,.58-.19.58-.46s-.21-.47-.58-.47h-.69v.93Z"/></svg>