<svg id="Layer_1" data-name="Layer 1" xmlns="http://www.w3.org/2000/svg" xmlns:xlink="http://www.w3.org/1999/xlink" viewBox="0 0 325.97 333.05"><defs><style>.cls-1,.cls-6{fill:none;}.cls-2{fill:#666;}.cls-3{fill:#f5eb11;}.cls-4{opacity:0.66;fill:url(#New_Gradient_Swatch_5);}.cls-5{fill:#fff;}.cls-6{stroke:#808184;stroke-miterlimit:10;stroke-width:2px;}.cls-7{clip-path:url(#clip-path);}.cls-8{clip-path:url(#clip-path-2);}.cls-9{fill:#808285;}.cls-10{fill:#c42032;fill-rule:evenodd;}</style><linearGradient id="New_Gradient_Swatch_5" x1="163.23" y1="91.58" x2="163.23" y2="331.71" gradientUnits="userSpaceOnUse"><stop offset="0" stop-color="#a61e29"/><stop offset="0.12" stop-color="#d55c28"/><stop offset="0.31" stop-color="#f1932d"/><stop offset="0.64" stop-color="#e0712a"/><stop offset="0.89" stop-color="#d55c28"/><stop offset="1" stop-color="#a61e29"/></linearGradient><clipPath id="clip-path"><rect class="cls-1" x="20.82" y="20.19" width="285.89" height="71.77"/></clipPath><clipPath id="clip-path-2"><rect class="cls-1" x="-42.97" y="-104.34" width="411.68" height="320.03"/></clipPath></defs><title>dealer-status-logos</title><path class="cls-2" d="M295,34.53v0a2.8,2.8,0,1,1,5.59,0v0a2.8,2.8,0,1,1-5.59,0Zm5.27,0v0A2.46,2.46,0,0,0,297.83,32a2.49,2.49,0,0,0-2.48,2.51v0A2.45,2.45,0,0,0,297.83,37,2.48,2.48,0,0,0,300.3,34.51ZM296.73,33H298c.62,0,1.09.31,1.09.9a.85.85,0,0,1-.66.87l.76,1.07h-.66l-.68-1h-.59v1h-.55ZM298,34.44c.37,0,.58-.19.58-.46s-.21-.47-.58-.47h-.69v.93Z"/><path class="cls-3" d="M325,310.59a21.32,21.32,0,0,1-21.42,21.12H22.89c-11.83,0-21.42-9.48-21.42-18.07V107.15c0-8.6,9.59-15.57,21.42-15.57H303.56c11.83,0,21.42,7,21.42,15.57Z"/><path class="cls-4" d="M325,310.59c0,12.22-9.59,21.12-21.42,21.12H22.89c-11.83,0-21.42-9.48-21.42-18.07V107.15c0-8.6,9.59-15.57,21.42-15.57H303.56c11.83,0,21.42,7,21.42,15.57Z"/><path class="cls-5" d="M325,108.54H1V22.45A21.45,21.45,0,0,1,22.44,1H303.5A21.45,21.45,0,0,1,325,22.45Z"/><path class="cls-6" d="M22.47,1H303.53A21.45,21.45,0,0,1,325,22.45V310.59A21.45,21.45,0,0,1,303.53,332H22.47A21.45,21.45,0,0,1,1,310.59V22.46A21.46,21.46,0,0,1,22.47,1Z"/><path class="cls-5" d="M82.44,216.24v-.11a19.12,19.12,0,0,1,19.36-19.42c6.55,0,10.57,1.82,14.44,5.09l-4.19,5a14.71,14.71,0,0,0-10.52-4c-6.92,0-12.17,6.06-12.17,13.25v.11c0,7.72,5.09,13.41,12.77,13.41a15.36,15.36,0,0,0,9.06-2.84v-7h-9.6v-5.74h16V229.7a24,24,0,0,1-15.67,5.85C90.16,235.55,82.44,227.18,82.44,216.24Z"/><path class="cls-5" d="M124.49,216.24v-.11a19.24,19.24,0,0,1,19.69-19.42c11.53,0,19.58,8.74,19.58,19.31v.11a19.24,19.24,0,0,1-19.69,19.42C132.54,235.55,124.49,226.81,124.49,216.24Zm32.35,0v-.11c0-7.3-5.31-13.36-12.77-13.36s-12.66,5.95-12.66,13.25v.11c0,7.29,5.31,13.36,12.77,13.36S156.84,223.53,156.84,216.24Z"/><path class="cls-5" d="M171.75,197.35h6.6V228.9h19.74v6H171.75Z"/><path class="cls-5" d="M205,197.35h14c11.81,0,20,8.1,20,18.67v.11c0,10.57-8.15,18.78-20,18.78H205Zm14,31.55c7.89,0,13-5.31,13-12.66v-.11c0-7.35-5.15-12.77-13-12.77h-7.4V228.9Z"/><g class="cls-7"><g class="cls-8"><g class="cls-8"><path class="cls-9" d="M25.17,56.82v-.1c0-10,7.82-18.21,18.7-18.21A19.74,19.74,0,0,1,58.29,44.1L55.44,47c-3.12-2.81-6.6-4.83-11.62-4.83A14.12,14.12,0,0,0,29.51,56.62v.1A14.21,14.21,0,0,0,43.82,71.26c5.07,0,8.4-1.86,11.94-5.08l2.74,2.57c-3.85,3.72-8.08,6.19-14.79,6.19-10.67,0-18.54-8-18.54-18.12"/><path class="cls-9" d="M66.54,61.45v-.1c0-7.34,6-13.58,14.26-13.58S95,53.91,95,61.25v.1c0,7.35-6.07,13.59-14.31,13.59S66.54,68.8,66.54,61.45m24.29,0v-.1A10.07,10.07,0,0,0,80.69,51.19a9.81,9.81,0,0,0-10,10.06v.1A10,10,0,0,0,80.8,71.46a9.81,9.81,0,0,0,10-10"/><path class="cls-9" d="M104.23,48.32h4.07v4.53a10.41,10.41,0,0,1,9.35-5.08c6.6,0,10.45,4.22,10.45,10.41V74.33H124V59.14c0-4.83-2.75-7.85-7.56-7.85a7.83,7.83,0,0,0-8.18,8.15V74.33h-4.07v-26"/><path class="cls-9" d="M141.17,67.44V51.74h-3.81V48.32h3.81V40.47h4.06v7.85h8.67v3.42h-8.67v15.2c0,3.17,1.85,4.32,4.6,4.32a9,9,0,0,0,4-.9v3.32a10.71,10.71,0,0,1-4.91,1.1c-4.39,0-7.71-2.06-7.71-7.34"/><path class="cls-9" d="M163,48.32H167v6.79c2-4.32,6-7.44,11.15-7.24v4.18h-.32c-6,0-10.83,4.07-10.83,11.92V74.33H163v-26"/><path class="cls-9" d="M183.39,61.45v-.1c0-7.34,6-13.58,14.26-13.58s14.21,6.14,14.21,13.48v.1c0,7.35-6.08,13.59-14.32,13.59s-14.15-6.14-14.15-13.49m24.3,0v-.1a10.08,10.08,0,0,0-10.15-10.16,9.82,9.82,0,0,0-10,10.06v.1a10,10,0,0,0,10.09,10.11,9.82,9.82,0,0,0,10-10"/><rect class="cls-9" x="221.46" y="37.61" width="4.07" height="36.72"/><polygon class="cls-10" points="254.82 63.99 274.93 63.99 274.93 76.52 281.09 76.52 281.09 58.82 261.76 58.84 278.16 36.17 270.49 36.17 253.4 59.94 254.82 63.99"/><path class="cls-10" d="M276.16,84.57a32.62,32.62,0,0,1-6.26.55,28.15,28.15,0,1,1,27-36.08,30.2,30.2,0,1,0-20.75,35.53"/><path class="cls-9" d="M294.66,34.08v0a2.87,2.87,0,0,1,5.74,0v0a2.87,2.87,0,0,1-5.74,0m5.41,0v0a2.52,2.52,0,0,0-2.54-2.55A2.55,2.55,0,0,0,295,34.06v0a2.52,2.52,0,0,0,2.54,2.55,2.55,2.55,0,0,0,2.54-2.57m-3.61-1.5h1.28c.6,0,1.08.31,1.08.89a.88.88,0,0,1-.71.87l.8,1.12h-.57l-.73-1h-.69v1h-.46ZM297.7,34c.41,0,.64-.21.64-.53s-.25-.51-.64-.51h-.78v1Z"/></g></g></g><path class="cls-5" d="M73.7,170.72V156h3.54v13.88c0,4.41,2.39,7.17,6.57,7.17s7.13-3,7.13-7.44V156h3.49v23.76H90.94V175.6a9.07,9.07,0,0,1-8.14,4.64C77.06,180.24,73.7,176.38,73.7,170.72Z"/><path class="cls-5" d="M103.63,173.44V159.1h-3.31V156h3.31V148.8h3.54V156h7.54v3.13h-7.54V173c0,2.89,1.61,4,4,4a7.44,7.44,0,0,0,3.45-.83v3a9,9,0,0,1-4.28,1C106.53,180.15,103.63,178.26,103.63,173.44Z"/><path class="cls-5" d="M121,146.18h3.54v13.93a9,9,0,0,1,8.14-4.64c5.74,0,9.1,3.86,9.1,9.51v14.75H138.2V165.85c0-4.41-2.39-7.17-6.57-7.17s-7.13,3-7.13,7.45v13.6H121Z"/><path class="cls-5" d="M147.82,168v-.09a12.39,12.39,0,0,1,24.77-.1v.1a12.33,12.33,0,0,1-12.46,12.4A12.16,12.16,0,0,1,147.82,168ZM169,168v-.09a9,9,0,0,0-8.83-9.29c-5.14,0-8.68,4.19-8.68,9.19v.1c0,5.1,3.76,9.23,8.77,9.23S169,173,169,168Z"/><path class="cls-5" d="M179,156h3.54v6.21c1.74-4,5.19-6.81,9.69-6.62v3.81H192c-5.19,0-9.42,3.73-9.42,10.9v9.46H179Z"/><path class="cls-5" d="M197.7,146.87h4v3.91h-4Zm.23,9.1h3.54v23.76h-3.54Z"/><path class="cls-5" d="M208.32,177.48,224.09,159H208.87v-3h20v2.25L213.1,176.75h15.81v3H208.32Z"/><path class="cls-5" d="M245.05,177.2a9.84,9.84,0,0,0,7.49-3.35l2.21,2a12.28,12.28,0,0,1-9.79,4.45c-6.53,0-11.86-5-11.86-12.4,0-6.9,4.83-12.41,11.4-12.41,7,0,11.08,5.6,11.08,12.59a12.38,12.38,0,0,1-.05,1.24H236.69A8.29,8.29,0,0,0,245.05,177.2ZM252,166.45c-.41-4.32-2.9-8-7.58-8-4.09,0-7.22,3.4-7.72,8Z"/><path class="cls-5" d="M260.41,167.92v-.09c0-7.77,5.66-12.36,11.35-12.36a10.72,10.72,0,0,1,9.1,5.05V146.18h3.54v33.55h-3.54V175c-1.93,2.85-4.73,5.29-9.1,5.29C266.07,180.24,260.41,175.74,260.41,167.92Zm20.59,0v-.1a8.83,8.83,0,0,0-8.59-9.14c-4.6,0-8.37,3.4-8.37,9.14v.1c0,5.6,3.86,9.19,8.37,9.19A8.87,8.87,0,0,0,281,167.88Z"/><path class="cls-5" d="M51.57,147.33H55l14.66,32.4H65.72L62,171.23H44.45l-3.82,8.5H36.91Zm9,20.64-7.31-16.41L45.87,168Z"/><path class="cls-5" d="M35.21,257.45H46.39c10.12,0,17.11,6.94,17.11,16v.09c0,9.06-7,16.1-17.11,16.1H35.21Zm11.18,28.84c8.14,0,13.34-5.52,13.34-12.65v-.09c0-7.13-5.2-12.74-13.34-12.74H38.85v25.48Z"/><path class="cls-5" d="M80.64,287.12a9.85,9.85,0,0,0,7.5-3.36l2.2,2a12.26,12.26,0,0,1-9.79,4.46c-6.54,0-11.87-5-11.87-12.42,0-6.9,4.83-12.42,11.41-12.42,7,0,11.08,5.61,11.08,12.61,0,.32,0,.69,0,1.24H72.26A8.32,8.32,0,0,0,80.64,287.12Zm6.94-10.76c-.41-4.33-2.89-8-7.59-8-4.09,0-7.22,3.4-7.73,8Z"/><path class="cls-5" d="M95.05,282.75v-.09c0-5.11,4.14-7.78,10.17-7.78a24.77,24.77,0,0,1,7.26,1v-.74c0-4.23-2.57-6.44-7-6.44a16.6,16.6,0,0,0-7.23,1.7l-1.06-2.9a19.63,19.63,0,0,1,8.65-2c3.36,0,6,.92,7.69,2.62a9.44,9.44,0,0,1,2.48,7v14.54h-3.5v-3.54a10.4,10.4,0,0,1-8.55,4.05C99.46,290.16,95.05,287.63,95.05,282.75Zm17.48-1.84V278.7a24.71,24.71,0,0,0-7-1c-4.41,0-6.94,1.93-6.94,4.78v.1c0,3,2.76,4.73,6,4.73C109,287.3,112.53,284.68,112.53,280.91Z"/><path class="cls-5" d="M122.37,256.07h3.54v33.58h-3.54Z"/><path class="cls-5" d="M143.92,287.12a9.82,9.82,0,0,0,7.5-3.36l2.21,2a12.27,12.27,0,0,1-9.8,4.46c-6.53,0-11.87-5-11.87-12.42,0-6.9,4.83-12.42,11.41-12.42,7,0,11.09,5.61,11.09,12.61a12.38,12.38,0,0,1-.05,1.24H135.55C136.06,284.22,139.74,287.12,143.92,287.12Zm7-10.76c-.41-4.33-2.9-8-7.59-8-4.1,0-7.22,3.4-7.73,8Z"/><path class="cls-5" d="M160.24,265.87h3.54v6.21c1.75-4,5.2-6.81,9.71-6.63v3.82h-.27c-5.2,0-9.44,3.73-9.44,10.9v9.48h-3.54Z"/><path class="cls-5" d="M190.9,287.13l11.83-10.43c5-4.48,6.8-7,6.8-10.25,0-3.82-3-6.24-6.56-6.24-3.73,0-6.15,2-8.76,5.59l-2.7-2c2.93-4.38,6-6.94,11.74-6.94s10.1,3.91,10.1,9.23v.09c0,4.75-2.51,7.68-8.24,12.66l-8.71,7.73h17.28V290H190.9Z"/><path class="cls-5" d="M216.82,273.85v-.09c0-9.12,5.45-16.86,13.83-16.86s13.69,7.64,13.69,16.77v.09c0,9.12-5.4,16.85-13.78,16.85S216.82,283,216.82,273.85Zm23.71,0v-.09c0-7.12-3.92-13.5-10-13.5s-9.92,6.23-9.92,13.41v.09c0,7.13,3.91,13.5,10,13.5S240.53,281,240.53,273.85Z"/><path class="cls-5" d="M252.71,260.76l-6.21,1.92-.89-3,8-2.78h2.73v33.16h-3.67Z"/><path class="cls-5" d="M280.24,260.54H261.92v-3.43h22.6v2.81l-15.13,30.5H265.2Z"/></svg>