<svg id="Layer_1" data-name="Layer 1" xmlns="http://www.w3.org/2000/svg" xmlns:xlink="http://www.w3.org/1999/xlink" viewBox="0 0 325.97 333.05"><defs><style>.cls-1{fill:none;}.cls-2{fill:url(#New_Gradient_Swatch_4);}.cls-3{fill:#fff;}.cls-4{fill:#808285;}.cls-5{clip-path:url(#clip-path);}.cls-6{clip-path:url(#clip-path-2);}.cls-7,.cls-8{fill:#c42032;}.cls-7{fill-rule:evenodd;}</style><linearGradient id="New_Gradient_Swatch_4" x1="163" y1="87.53" x2="163" y2="332.12" gradientUnits="userSpaceOnUse"><stop offset="0.04" stop-color="#5b5c5e"/><stop offset="0.19" stop-color="#808283"/><stop offset="0.31" stop-color="#a7a8ab"/><stop offset="0.55" stop-color="#949698"/><stop offset="0.86" stop-color="#808283"/><stop offset="0.95" stop-color="#5b5c5e"/></linearGradient><clipPath id="clip-path"><rect id="SVGID" class="cls-1" x="20.82" y="20.11" width="285.89" height="71.77"/></clipPath><clipPath id="clip-path-2"><rect id="SVGID-2" data-name="SVGID" class="cls-1" x="-42.97" y="-104.42" width="411.68" height="320.03"/></clipPath></defs><title>dealer-status-logos</title><path class="cls-2" d="M325,310.66a21.68,21.68,0,0,1-21.65,21.46H22.85A21.69,21.69,0,0,1,1,310.66l.43-207.28c0-8.75,9.59-15.85,21.41-15.85H303.33c11.83,0,21.41,7.1,21.41,15.85Z"/><path class="cls-3" d="M325,108.51H1V22.39A21.47,21.47,0,0,1,22.44.92H303.5A21.47,21.47,0,0,1,325,22.39Z"/><path class="cls-4" d="M303.53,2.92A19.48,19.48,0,0,1,323,22.39V310.66a19.47,19.47,0,0,1-19.45,19.46H22.47A19.48,19.48,0,0,1,3,310.66V22.39A19.49,19.49,0,0,1,22.47,2.92H303.53m0-2H22.47A21.46,21.46,0,0,0,1,22.39V310.66a21.46,21.46,0,0,0,21.46,21.46H303.53A21.45,21.45,0,0,0,325,310.66V22.39A21.46,21.46,0,0,0,303.53.92Z"/><path class="cls-3" d="M72.14,202.75h5.65v27H94.7v5.15H72.14Z"/><path class="cls-3" d="M114.32,202.52h5.23l14.16,32.42h-6l-3.27-7.77H109.26L106,234.94h-5.79Zm8.09,19.64-5.57-12.88-5.51,12.88Z"/><path class="cls-3" d="M140.68,208h-10.2v-5.24h26.1V208h-10.2v26.95h-5.7Z"/><path class="cls-3" d="M163.65,202.75h5.65v32.19h-5.65Z"/><path class="cls-3" d="M177.14,202.75h5.24L199.62,225V202.75h5.56v32.19h-4.74L182.71,212v22.9h-5.57Z"/><path class="cls-3" d="M213,221.29V202.75h5.65v18.3c0,6,3.08,9.2,8.14,9.2s8.08-3,8.08-9V202.75h5.66V221c0,9.61-5.43,14.44-13.83,14.44S213,230.62,213,221.29Z"/><path class="cls-3" d="M248.27,202.75h6L264.08,218l9.79-15.22h6v32.19h-5.65V211.86L264.08,227h-.18L253.83,212v23h-5.56Z"/><path class="cls-3" d="M41.42,202.75H54.11c7.49,0,12.22,4.28,12.22,10.76v.1c0,7.21-5.79,11-12.86,11H47.08v10.35H41.42Zm12.23,16.74c4.27,0,6.94-2.39,6.94-5.75v-.09c0-3.77-2.71-5.75-6.94-5.75H47.08v11.59Z"/><g class="cls-5"><g class="cls-6"><g class="cls-6"><path class="cls-4" d="M25.17,56.74v-.1c0-10,7.82-18.21,18.7-18.21A19.77,19.77,0,0,1,58.29,44l-2.85,2.92c-3.12-2.81-6.6-4.83-11.62-4.83A14.12,14.12,0,0,0,29.51,56.54v.1A14.21,14.21,0,0,0,43.82,71.18c5.07,0,8.4-1.86,11.94-5.08l2.74,2.57c-3.85,3.72-8.08,6.19-14.79,6.19-10.67,0-18.54-8-18.54-18.12"/><path class="cls-4" d="M66.54,61.37v-.1c0-7.34,6-13.58,14.26-13.58S95,53.82,95,61.17v.1c0,7.35-6.07,13.59-14.31,13.59S66.54,68.72,66.54,61.37m24.29,0v-.1A10.07,10.07,0,0,0,80.69,51.11a9.81,9.81,0,0,0-10,10.06v.1A10,10,0,0,0,80.8,71.38a9.81,9.81,0,0,0,10-10"/><path class="cls-4" d="M104.23,48.24h4.07v4.53a10.41,10.41,0,0,1,9.35-5.08c6.6,0,10.45,4.22,10.45,10.41V74.25H124V59.06c0-4.83-2.75-7.85-7.56-7.85a7.83,7.83,0,0,0-8.18,8.15V74.25h-4.07v-26"/><path class="cls-4" d="M141.17,67.36V51.66h-3.81V48.24h3.81V40.39h4.06v7.85h8.67v3.42h-8.67v15.2c0,3.17,1.85,4.32,4.6,4.32a9,9,0,0,0,4-.9V73.6a10.71,10.71,0,0,1-4.91,1.1c-4.39,0-7.71-2.06-7.71-7.34"/><path class="cls-4" d="M163,48.24H167V55c2-4.32,6-7.44,11.15-7.24V52h-.32C171.89,52,167,56,167,63.89V74.25H163v-26"/><path class="cls-4" d="M183.39,61.37v-.1c0-7.34,6-13.58,14.26-13.58s14.21,6.13,14.21,13.48v.1c0,7.35-6.08,13.59-14.32,13.59s-14.15-6.14-14.15-13.49m24.3,0v-.1a10.08,10.08,0,0,0-10.15-10.16,9.82,9.82,0,0,0-10,10.06v.1a10,10,0,0,0,10.09,10.11,9.82,9.82,0,0,0,10-10"/><rect class="cls-4" x="221.46" y="37.53" width="4.07" height="36.72"/><polygon class="cls-7" points="254.82 63.91 274.93 63.91 274.93 76.44 281.09 76.44 281.09 58.74 261.76 58.76 278.16 36.09 270.49 36.09 253.4 59.85 254.82 63.91"/><path class="cls-7" d="M276.16,84.49a32.62,32.62,0,0,1-6.26.55,28.15,28.15,0,1,1,27-36.08,30.2,30.2,0,1,0-20.75,35.53"/><path class="cls-8" d="M294.66,34v0a2.87,2.87,0,0,1,5.74,0v0a2.87,2.87,0,0,1-5.74,0m5.41,0v0a2.52,2.52,0,0,0-2.54-2.55A2.55,2.55,0,0,0,295,34v0a2.52,2.52,0,0,0,2.54,2.55A2.55,2.55,0,0,0,300.07,34m-3.61-1.5h1.28c.6,0,1.08.31,1.08.89a.88.88,0,0,1-.71.87l.8,1.12h-.57l-.73-1h-.69v1h-.46Zm1.24,1.45c.41,0,.64-.21.64-.53s-.25-.51-.64-.51h-.78v1Z"/></g></g></g><path class="cls-3" d="M73.7,170.64V155.89h3.54v13.88c0,4.41,2.39,7.17,6.57,7.17s7.13-3,7.13-7.44V155.89h3.49v23.76H90.94v-4.13a9.07,9.07,0,0,1-8.14,4.64C77.06,180.16,73.7,176.3,73.7,170.64Z"/><path class="cls-3" d="M103.63,173.36V159h-3.31v-3.13h3.31v-7.17h3.54v7.17h7.54V159h-7.54V172.9c0,2.89,1.61,3.95,4,3.95a7.44,7.44,0,0,0,3.45-.83v3a9,9,0,0,1-4.28,1C106.53,180.07,103.63,178.18,103.63,173.36Z"/><path class="cls-3" d="M121,146.1h3.54V160a9,9,0,0,1,8.14-4.64c5.74,0,9.1,3.86,9.1,9.51v14.75H138.2V165.77c0-4.41-2.39-7.17-6.57-7.17s-7.13,3-7.13,7.45v13.6H121Z"/><path class="cls-3" d="M147.82,167.89v-.09a12.39,12.39,0,0,1,24.77-.1v.1a12.33,12.33,0,0,1-12.46,12.4A12.16,12.16,0,0,1,147.82,167.89Zm21.14,0v-.09a9,9,0,0,0-8.83-9.29c-5.14,0-8.68,4.18-8.68,9.19v.1c0,5.1,3.76,9.23,8.77,9.23S169,172.9,169,167.89Z"/><path class="cls-3" d="M179,155.89h3.54v6.21c1.74-4,5.19-6.81,9.69-6.62v3.81H192c-5.19,0-9.42,3.73-9.42,10.9v9.46H179Z"/><path class="cls-3" d="M197.7,146.79h4v3.91h-4Zm.23,9.1h3.54v23.76h-3.54Z"/><path class="cls-3" d="M208.32,177.4l15.77-18.52H208.87v-3h20v2.25L213.1,176.67h15.81v3H208.32Z"/><path class="cls-3" d="M245.05,177.12a9.84,9.84,0,0,0,7.49-3.35l2.21,2A12.28,12.28,0,0,1,245,180.2c-6.53,0-11.86-5-11.86-12.4,0-6.9,4.83-12.41,11.4-12.41,7,0,11.08,5.6,11.08,12.59a12.38,12.38,0,0,1-.05,1.24H236.69A8.29,8.29,0,0,0,245.05,177.12ZM252,166.37c-.41-4.32-2.9-8-7.58-8-4.09,0-7.22,3.4-7.72,8Z"/><path class="cls-3" d="M260.41,167.84v-.09c0-7.77,5.66-12.36,11.35-12.36a10.72,10.72,0,0,1,9.1,5.05V146.1h3.54v33.55h-3.54v-4.78c-1.93,2.85-4.73,5.29-9.1,5.29C266.07,180.16,260.41,175.66,260.41,167.84Zm20.59,0v-.1a8.83,8.83,0,0,0-8.59-9.14c-4.6,0-8.37,3.4-8.37,9.14v.1c0,5.6,3.86,9.19,8.37,9.19A8.87,8.87,0,0,0,281,167.8Z"/><path class="cls-3" d="M51.57,147.25H55l14.66,32.4H65.72L62,171.15H44.45l-3.82,8.5H36.91Zm9,20.64-7.31-16.41-7.35,16.41Z"/><path class="cls-3" d="M35.53,257.24H46.71c10.12,0,17.11,6.95,17.11,16v.1c0,9.06-7,16.1-17.11,16.1H35.53Zm11.18,28.85c8.14,0,13.34-5.52,13.34-12.65v-.09c0-7.13-5.2-12.75-13.34-12.75H39.17v25.49Z"/><path class="cls-3" d="M79.55,286.92a9.85,9.85,0,0,0,7.5-3.36l2.21,2a12.27,12.27,0,0,1-9.8,4.46c-6.53,0-11.87-5-11.87-12.42,0-6.9,4.83-12.42,11.41-12.42,7,0,11.09,5.61,11.09,12.6A12.38,12.38,0,0,1,90,279H71.18C71.69,284,75.37,286.92,79.55,286.92Zm7-10.77c-.41-4.32-2.9-8-7.59-8-4.09,0-7.22,3.4-7.73,8Z"/><path class="cls-3" d="M93.72,282.55v-.09c0-5.11,4.14-7.78,10.17-7.78a24.87,24.87,0,0,1,7.27,1V275c0-4.24-2.58-6.44-7-6.44a16.52,16.52,0,0,0-7.22,1.7l-1.06-2.9a19.43,19.43,0,0,1,8.65-2c3.36,0,6,.92,7.68,2.62s2.48,3.95,2.48,7v14.54h-3.49v-3.54a10.45,10.45,0,0,1-8.56,4C98.14,290,93.72,287.42,93.72,282.55Zm17.48-1.84V278.5a24.27,24.27,0,0,0-6.94-1c-4.42,0-7,1.93-7,4.78v.09c0,3,2.76,4.74,6,4.74C107.66,287.1,111.2,284.48,111.2,280.71Z"/><path class="cls-3" d="M121.69,255.86h3.54v33.59h-3.54Z"/><path class="cls-3" d="M143.17,286.92a9.85,9.85,0,0,0,7.5-3.36l2.21,2a12.27,12.27,0,0,1-9.8,4.46c-6.53,0-11.87-5-11.87-12.42,0-6.9,4.83-12.42,11.41-12.42,7,0,11.09,5.61,11.09,12.6a12.38,12.38,0,0,1-.05,1.24H134.8C135.31,284,139,286.92,143.17,286.92Zm7-10.77c-.42-4.32-2.9-8-7.59-8-4.1,0-7.22,3.4-7.73,8Z"/><path class="cls-3" d="M159.13,265.66h3.54v6.21c1.75-3.95,5.2-6.8,9.71-6.62v3.82h-.28c-5.19,0-9.43,3.72-9.43,10.9v9.48h-3.54Z"/><path class="cls-3" d="M188.71,286.64l11.68-10.3c4.93-4.42,6.72-6.9,6.72-10.12a6.15,6.15,0,0,0-6.48-6.17c-3.69,0-6.08,1.93-8.65,5.52l-2.67-1.93c2.9-4.33,5.93-6.86,11.59-6.86s10,3.87,10,9.11v.1c0,4.69-2.48,7.59-8.14,12.51l-8.6,7.64h17.07v3.31h-22.5Z"/><path class="cls-3" d="M214.61,273.44v-.09c0-9,5.38-16.66,13.66-16.66s13.53,7.55,13.53,16.56v.1c0,9-5.34,16.65-13.62,16.65S214.61,282.46,214.61,273.44Zm23.41,0v-.09c0-7-3.86-13.35-9.84-13.35s-9.8,6.17-9.8,13.25v.1c0,7,3.86,13.34,9.89,13.34S238,280.48,238,273.44Z"/><path class="cls-3" d="M250.35,260.79l-6.07,1.88-.88-2.94,7.87-2.72h2.67v32.44h-3.59Z"/><path class="cls-3" d="M261.43,286l2.12-2.8c2.62,2.3,5.06,3.45,7.91,3.45,5.8,0,9.71-5.89,9.57-14.13a10.32,10.32,0,0,1-9.11,5.16c-6.62,0-11.22-4.19-11.22-10v-.09c0-6.12,4.74-10.95,11.59-10.95a11.4,11.4,0,0,1,8.47,3.31c2.43,2.44,4,6,4,12.47v.09c0,10.22-5.43,17.44-13.39,17.44A14.91,14.91,0,0,1,261.43,286Zm18.91-18.72v-.09c0-4.1-3.36-7.32-8.19-7.32a7.39,7.39,0,0,0-7.72,7.55v.09c0,4.09,3.21,7,7.91,7C277.26,274.59,280.34,271,280.34,267.32Z"/></svg>