<svg id="Layer_1" data-name="Layer 1" xmlns="http://www.w3.org/2000/svg" xmlns:xlink="http://www.w3.org/1999/xlink" viewBox="0 0 325.97 333.05"><defs><style>.cls-1{fill:#666;}.cls-2{fill:#f5eb11;}.cls-3{opacity:0.66;fill:url(#New_Gradient_Swatch_5);}.cls-4{fill:#fff;}.cls-5{fill:none;stroke:#808184;stroke-miterlimit:10;stroke-width:2px;}.cls-6{fill:#a61e29;}.cls-6,.cls-7{fill-rule:evenodd;}.cls-7{fill:#c12334;}</style><linearGradient id="New_Gradient_Swatch_5" x1="163.23" y1="91.58" x2="163.23" y2="331.71" gradientUnits="userSpaceOnUse"><stop offset="0" stop-color="#a61e29"/><stop offset="0.12" stop-color="#d55c28"/><stop offset="0.31" stop-color="#f1932d"/><stop offset="0.64" stop-color="#e0712a"/><stop offset="0.89" stop-color="#d55c28"/><stop offset="1" stop-color="#a61e29"/></linearGradient></defs><title>dealer-status-logos</title><path class="cls-1" d="M191.1,166.54v0a2.8,2.8,0,1,1,5.59,0h0a2.8,2.8,0,1,1-5.59,0Zm5.26,0h0a2.45,2.45,0,0,0-2.47-2.49,2.48,2.48,0,0,0-2.47,2.5v0a2.47,2.47,0,1,0,4.94,0Zm-3.56-1.47h1.29c.62,0,1.09.3,1.09.9a.86.86,0,0,1-.66.86l.76,1.08h-.67l-.67-1h-.59v1h-.55Zm1.24,1.41c.37,0,.57-.19.57-.47s-.2-.46-.57-.46h-.69v.93Z"/><path class="cls-2" d="M325,310.59a21.32,21.32,0,0,1-21.42,21.12H22.89c-11.83,0-21.42-9.48-21.42-18.07V107.15c0-8.6,9.59-15.57,21.42-15.57H303.56c11.83,0,21.42,7,21.42,15.57Z"/><path class="cls-3" d="M325,310.59c0,12.22-9.59,21.12-21.42,21.12H22.89c-11.83,0-21.42-9.48-21.42-18.07V107.15c0-8.6,9.59-15.57,21.42-15.57H303.56c11.83,0,21.42,7,21.42,15.57Z"/><path class="cls-4" d="M325,108.54H1V22.45A21.45,21.45,0,0,1,22.44,1H303.5A21.45,21.45,0,0,1,325,22.45Z"/><path class="cls-5" d="M325,310.59a21.45,21.45,0,0,1-21.45,21.46H22.47A21.45,21.45,0,0,1,1,310.59V22.45A21.45,21.45,0,0,1,22.47,1H303.53A21.45,21.45,0,0,1,325,22.45Z"/><path class="cls-4" d="M25,57.09V57c0-10,7.81-18.2,18.68-18.2a19.68,19.68,0,0,1,14.39,5.59l-2.84,2.91c-3.11-2.81-6.6-4.82-11.61-4.82A14.1,14.1,0,0,0,29.31,56.88V57A14.19,14.19,0,0,0,43.6,71.51c5.07,0,8.39-1.86,11.92-5.08L58.26,69c-3.85,3.72-8.07,6.19-14.77,6.19-10.65,0-18.51-8-18.51-18.09"/><path class="cls-4" d="M66.29,61.71v-.1c0-7.34,6-13.57,14.24-13.57s14.19,6.13,14.19,13.47v.1c0,7.33-6.07,13.57-14.3,13.57S66.29,69,66.29,61.71m24.26,0v-.1A10.06,10.06,0,0,0,80.42,51.46a9.8,9.8,0,0,0-10,10v.1a10,10,0,0,0,10.07,10.1,9.81,9.81,0,0,0,10-10"/><path class="cls-4" d="M103.93,48.6H108v4.52A10.4,10.4,0,0,1,117.33,48c6.59,0,10.44,4.23,10.44,10.4V74.57h-4.06V59.4c0-4.83-2.74-7.84-7.54-7.84A7.83,7.83,0,0,0,108,59.7V74.57h-4.07v-26"/><path class="cls-4" d="M140.82,67.69V52H137V48.6h3.8V40.76h4.06V48.6h8.65V52h-8.65V67.18c0,3.17,1.85,4.33,4.59,4.33a9,9,0,0,0,4-.91v3.32a10.71,10.71,0,0,1-4.91,1.1c-4.37,0-7.7-2.06-7.7-7.33"/><path class="cls-4" d="M162.59,48.6h4.06v6.78c2-4.32,6-7.44,11.13-7.23v4.16h-.32c-6,0-10.81,4.07-10.81,11.91V74.57h-4.06v-26"/><path class="cls-4" d="M183,61.71v-.1C183,54.27,189,48,197.23,48s14.19,6.13,14.19,13.47v.1c0,7.33-6.07,13.57-14.3,13.57S183,69,183,61.71m24.26,0v-.1a10.06,10.06,0,0,0-10.13-10.15,9.8,9.8,0,0,0-10,10v.1a10,10,0,0,0,10.08,10.1,9.81,9.81,0,0,0,10-10"/><rect class="cls-4" x="221" y="37.89" width="4.06" height="36.68"/><polygon class="cls-6" points="254.32 64.23 274.4 64.25 274.4 76.76 280.55 76.76 280.55 59.08 261.25 59.09 277.63 36.47 269.97 36.47 252.9 60.19 254.32 64.23"/><path class="cls-6" d="M275.63,84.8a32.52,32.52,0,0,1-6.25.55,28.11,28.11,0,1,1,27-36A30.15,30.15,0,1,0,275.63,84.8"/><path class="cls-4" d="M25,57.09V57c0-10,7.81-18.2,18.68-18.2a19.68,19.68,0,0,1,14.39,5.59l-2.84,2.91c-3.11-2.81-6.6-4.82-11.61-4.82A14.1,14.1,0,0,0,29.31,56.88V57A14.19,14.19,0,0,0,43.6,71.51c5.07,0,8.39-1.86,11.92-5.08L58.26,69c-3.85,3.72-8.07,6.19-14.77,6.19-10.65,0-18.51-8-18.51-18.09"/><path class="cls-4" d="M66.29,61.71v-.1c0-7.34,6-13.57,14.24-13.57s14.19,6.13,14.19,13.47v.1c0,7.33-6.07,13.57-14.3,13.57S66.29,69,66.29,61.71m24.26,0v-.1A10.06,10.06,0,0,0,80.42,51.46a9.8,9.8,0,0,0-10,10v.1a10,10,0,0,0,10.07,10.1,9.81,9.81,0,0,0,10-10"/><path class="cls-4" d="M103.93,48.6H108v4.52A10.4,10.4,0,0,1,117.33,48c6.59,0,10.44,4.23,10.44,10.4V74.57h-4.06V59.4c0-4.83-2.74-7.84-7.54-7.84A7.83,7.83,0,0,0,108,59.7V74.57h-4.07v-26"/><path class="cls-4" d="M140.82,67.69V52H137V48.6h3.8V40.76h4.06V48.6h8.65V52h-8.65V67.18c0,3.17,1.85,4.33,4.59,4.33a9,9,0,0,0,4-.91v3.32a10.71,10.71,0,0,1-4.91,1.1c-4.37,0-7.7-2.06-7.7-7.33"/><path class="cls-4" d="M162.59,48.6h4.06v6.78c2-4.32,6-7.44,11.13-7.23v4.16h-.32c-6,0-10.81,4.07-10.81,11.91V74.57h-4.06v-26"/><path class="cls-4" d="M183,61.71v-.1C183,54.27,189,48,197.23,48s14.19,6.13,14.19,13.47v.1c0,7.33-6.07,13.57-14.3,13.57S183,69,183,61.71m24.26,0v-.1a10.06,10.06,0,0,0-10.13-10.15,9.8,9.8,0,0,0-10,10v.1a10,10,0,0,0,10.08,10.1,9.81,9.81,0,0,0,10-10"/><rect class="cls-4" x="221" y="37.89" width="4.06" height="36.68"/><polygon class="cls-6" points="254.32 64.23 274.4 64.25 274.4 76.76 280.55 76.76 280.55 59.08 261.25 59.09 277.62 36.47 269.97 36.47 252.9 60.19 254.32 64.23"/><path class="cls-6" d="M275.63,84.8a32.59,32.59,0,0,1-6.25.55,28.11,28.11,0,1,1,27-36A30.15,30.15,0,1,0,275.63,84.8"/><path class="cls-1" d="M25,57.09V57c0-10,7.81-18.2,18.67-18.2a19.69,19.69,0,0,1,14.4,5.59l-2.84,2.91c-3.11-2.81-6.6-4.82-11.61-4.82A14.1,14.1,0,0,0,29.31,56.88V57A14.19,14.19,0,0,0,43.6,71.51c5.06,0,8.39-1.86,11.92-5.08L58.26,69c-3.85,3.72-8.07,6.19-14.77,6.19-10.65,0-18.51-8-18.51-18.09"/><path class="cls-1" d="M66.29,61.71v-.1c0-7.34,6-13.57,14.24-13.57s14.19,6.13,14.19,13.47v.1c0,7.33-6.07,13.57-14.3,13.57S66.29,69,66.29,61.71m24.26,0v-.1A10.06,10.06,0,0,0,80.42,51.46a9.81,9.81,0,0,0-10,10v.1a10,10,0,0,0,10.08,10.1,9.81,9.81,0,0,0,10-10"/><path class="cls-1" d="M103.93,48.6H108v4.52A10.42,10.42,0,0,1,117.33,48c6.59,0,10.44,4.23,10.44,10.4V74.57h-4.06V59.4c0-4.83-2.74-7.84-7.54-7.84A7.83,7.83,0,0,0,108,59.7V74.57h-4.06v-26"/><path class="cls-1" d="M140.82,67.69V52H137V48.6h3.8V40.76h4.06V48.6h8.65V52h-8.65V67.18c0,3.17,1.85,4.33,4.59,4.33a9,9,0,0,0,4-.91v3.32a10.71,10.71,0,0,1-4.91,1.1c-4.38,0-7.7-2.06-7.7-7.33"/><path class="cls-1" d="M162.59,48.6h4.06v6.78c2-4.32,5.95-7.44,11.12-7.23v4.16h-.31c-6,0-10.81,4.07-10.81,11.91V74.57h-4.06v-26"/><path class="cls-1" d="M183,61.71v-.1C183,54.27,189,48,197.23,48s14.19,6.13,14.19,13.47v.1c0,7.33-6.07,13.57-14.3,13.57S183,69,183,61.71m24.27,0v-.1a10.06,10.06,0,0,0-10.13-10.15,9.8,9.8,0,0,0-10,10v.1a10,10,0,0,0,10.08,10.1,9.81,9.81,0,0,0,10-10"/><rect class="cls-1" x="221" y="37.89" width="4.06" height="36.68"/><polygon class="cls-7" points="254.32 64.23 274.4 64.25 274.4 76.76 280.55 76.76 280.55 59.08 261.25 59.09 277.62 36.47 269.97 36.47 252.9 60.19 254.32 64.23"/><path class="cls-7" d="M275.63,84.8a32.59,32.59,0,0,1-6.25.55,28.11,28.11,0,1,1,27-36A30.15,30.15,0,1,0,275.63,84.8"/><path class="cls-4" d="M50.83,138.11h3.41l14.67,32.43H65L61.23,162H43.7l-3.81,8.51H36.16Zm9,20.65-7.31-16.42-7.36,16.42Z"/><path class="cls-4" d="M73.06,161.52V146.76H76.6v13.88c0,4.42,2.39,7.18,6.58,7.18s7.13-3,7.13-7.45V146.76H93.8v23.78H90.31V166.4A9.07,9.07,0,0,1,82.17,171C76.42,171,73.06,167.18,73.06,161.52Z"/><path class="cls-4" d="M103,164.24V149.88H99.68v-3.12H103v-7.18h3.54v7.18h7.55v3.12h-7.55v13.89c0,2.9,1.61,4,4,4a7.47,7.47,0,0,0,3.45-.83v3a9,9,0,0,1-4.28,1C105.89,171,103,169.06,103,164.24Z"/><path class="cls-4" d="M120.33,137h3.54v13.93a9,9,0,0,1,8.14-4.64c5.75,0,9.11,3.86,9.11,9.52v14.77h-3.55v-13.9c0-4.41-2.39-7.17-6.57-7.17s-7.13,3-7.13,7.45v13.62h-3.54Z"/><path class="cls-4" d="M147.18,158.76v-.09a12.4,12.4,0,0,1,24.79-.09v.09a12.35,12.35,0,0,1-12.47,12.42A12.18,12.18,0,0,1,147.18,158.76Zm21.16,0v-.09a9,9,0,0,0-8.84-9.29c-5.15,0-8.69,4.18-8.69,9.2v.09a8.92,8.92,0,0,0,8.79,9.24C164.75,167.91,168.34,163.77,168.34,158.76Z"/><path class="cls-4" d="M178.35,146.76h3.54V153c1.75-4,5.2-6.8,9.71-6.62v3.82h-.28c-5.19,0-9.43,3.72-9.43,10.9v9.48h-3.54Z"/><path class="cls-4" d="M197.06,137.65h4.05v3.91h-4.05Zm.23,9.11h3.54v23.78h-3.54Z"/><path class="cls-4" d="M207.68,168.28l15.78-18.53H208.24v-3h20V149l-15.82,18.54h15.82v3H207.68Z"/><path class="cls-4" d="M244.42,168a9.84,9.84,0,0,0,7.5-3.35l2.21,2a12.3,12.3,0,0,1-9.8,4.46c-6.53,0-11.87-5-11.87-12.42,0-6.9,4.84-12.42,11.41-12.42,7,0,11.09,5.61,11.09,12.6a12.38,12.38,0,0,1-.05,1.24H236.05C236.56,165.11,240.24,168,244.42,168Zm7-10.76c-.41-4.32-2.9-8-7.59-8-4.09,0-7.22,3.4-7.73,8Z"/><path class="cls-4" d="M259.78,158.72v-.1c0-7.77,5.65-12.37,11.36-12.37a10.74,10.74,0,0,1,9.11,5.06V137h3.54v33.58h-3.54v-4.79c-1.94,2.85-4.74,5.29-9.11,5.29C265.43,171,259.78,166.53,259.78,158.72Zm20.6-.05v-.09a8.84,8.84,0,0,0-8.6-9.16c-4.6,0-8.37,3.41-8.37,9.16v.09c0,5.61,3.86,9.2,8.37,9.2A8.88,8.88,0,0,0,280.38,158.67Z"/><path class="cls-4" d="M82.44,216.24v-.11a19.12,19.12,0,0,1,19.36-19.42c6.55,0,10.57,1.82,14.44,5.09l-4.19,5a14.71,14.71,0,0,0-10.52-4c-6.92,0-12.17,6.06-12.17,13.25v.11c0,7.72,5.09,13.41,12.77,13.41a15.36,15.36,0,0,0,9.06-2.84v-7h-9.6v-5.74h16V229.7a24,24,0,0,1-15.67,5.85C90.16,235.55,82.44,227.18,82.44,216.24Z"/><path class="cls-4" d="M124.49,216.24v-.11a19.24,19.24,0,0,1,19.69-19.42c11.53,0,19.58,8.74,19.58,19.31v.11a19.24,19.24,0,0,1-19.69,19.42C132.54,235.55,124.49,226.81,124.49,216.24Zm32.35,0v-.11c0-7.3-5.31-13.36-12.77-13.36s-12.66,5.95-12.66,13.25v.11c0,7.29,5.31,13.36,12.77,13.36S156.84,223.53,156.84,216.24Z"/><path class="cls-4" d="M171.75,197.35h6.6V228.9h19.74v6H171.75Z"/><path class="cls-4" d="M205,197.35h14c11.81,0,20,8.1,20,18.67v.11c0,10.57-8.15,18.78-20,18.78H205Zm14,31.55c7.89,0,13-5.31,13-12.66v-.11c0-7.35-5.15-12.77-13-12.77h-7.4V228.9Z"/><path class="cls-4" d="M35.23,257.44H46.41c10.12,0,17.11,6.95,17.11,16v.09c0,9.07-7,16.11-17.11,16.11H35.23Zm11.18,28.85c8.14,0,13.34-5.52,13.34-12.65v-.1c0-7.13-5.2-12.74-13.34-12.74H38.86v25.49Z"/><path class="cls-4" d="M80.65,287.12a9.85,9.85,0,0,0,7.5-3.36l2.21,2a12.3,12.3,0,0,1-9.8,4.46c-6.53,0-11.87-5-11.87-12.42,0-6.9,4.83-12.42,11.41-12.42,7,0,11.09,5.61,11.09,12.6a12.38,12.38,0,0,1,0,1.24H72.28C72.79,284.22,76.47,287.12,80.65,287.12Zm6.95-10.77c-.41-4.32-2.9-8-7.59-8-4.09,0-7.22,3.4-7.73,8Z"/><path class="cls-4" d="M95.06,282.75v-.1c0-5.1,4.15-7.77,10.17-7.77a24.87,24.87,0,0,1,7.27,1v-.73c0-4.24-2.58-6.45-7-6.45a16.45,16.45,0,0,0-7.22,1.71l-1.06-2.9a19.43,19.43,0,0,1,8.65-2c3.36,0,6,.92,7.68,2.63s2.49,3.95,2.49,7v14.54h-3.5V286.1a10.43,10.43,0,0,1-8.56,4C99.48,290.15,95.06,287.62,95.06,282.75Zm17.49-1.84V278.7a24.35,24.35,0,0,0-7-1c-4.42,0-6.95,1.93-6.95,4.78v.09c0,3,2.76,4.74,6,4.74C109,287.3,112.55,284.68,112.55,280.91Z"/><path class="cls-4" d="M122.39,256.06h3.54v33.59h-3.54Z"/><path class="cls-4" d="M143.94,287.12a9.85,9.85,0,0,0,7.5-3.36l2.21,2a12.31,12.31,0,0,1-9.8,4.46c-6.53,0-11.87-5-11.87-12.42,0-6.9,4.83-12.42,11.41-12.42,7,0,11.08,5.61,11.08,12.6,0,.32,0,.69,0,1.24H135.57C136.07,284.22,139.75,287.12,143.94,287.12Zm6.95-10.77c-.42-4.32-2.9-8-7.59-8-4.1,0-7.23,3.4-7.73,8Z"/><path class="cls-4" d="M160.26,265.86h3.54v6.21c1.75-3.95,5.2-6.81,9.71-6.62v3.82h-.28c-5.2,0-9.43,3.72-9.43,10.9v9.48h-3.54Z"/><path class="cls-4" d="M190.91,286.53l11.52-10.16c4.86-4.35,6.62-6.8,6.62-10,0-3.71-2.94-6.07-6.39-6.07-3.63,0-6,1.9-8.53,5.44l-2.62-1.91c2.85-4.26,5.84-6.76,11.42-6.76s9.84,3.82,9.84,9v.09c0,4.63-2.44,7.48-8,12.33L196.27,286h16.82v3.26H190.91Z"/><path class="cls-4" d="M216.15,273.6v-.09c0-8.88,5.31-16.42,13.47-16.42S243,264.54,243,273.42v.09c0,8.89-5.26,16.42-13.43,16.42S216.15,282.49,216.15,273.6Zm23.09,0v-.09c0-6.93-3.81-13.15-9.71-13.15s-9.66,6.08-9.66,13.06v.09c0,6.94,3.81,13.15,9.75,13.15S239.24,280.54,239.24,273.6Z"/><path class="cls-4" d="M251.11,260.85l-6.05,1.88-.87-2.93,7.83-2.71h2.66v32.3h-3.57Z"/><path class="cls-4" d="M263,286.9c-2.57-2.57-4-5.88-4-12.45v-.09c0-9.78,5-17.45,13.36-17.45a14.23,14.23,0,0,1,9.51,3.67l-2.11,2.8c-2.39-2-4.64-3.17-7.58-3.17-5.83,0-9.46,5.88-9.42,14.2a10.42,10.42,0,0,1,9.14-4.92c6,0,11.12,3.86,11.12,9.88v.09c0,6.2-5,10.7-11.53,10.7A11.67,11.67,0,0,1,263,286.9Zm16.26-7.3v-.1c0-3.95-3.22-6.88-7.86-6.88-4.82,0-8,3.44-8,7v.09c0,4.09,3.4,7.21,8.13,7.21S279.23,283.68,279.23,279.6Z"/><path class="cls-1" d="M191.08,166.54v0a2.82,2.82,0,1,1,5.63,0h0a2.84,2.84,0,0,1-2.82,2.84A2.81,2.81,0,0,1,191.08,166.54Zm5.3,0h0a2.47,2.47,0,0,0-2.49-2.51,2.5,2.5,0,0,0-2.49,2.52v0a2.49,2.49,0,1,0,5,0ZM192.79,165h1.3c.63,0,1.1.31,1.1.91a.86.86,0,0,1-.67.87l.77,1.09h-.67l-.68-1h-.6v1h-.55Zm1.25,1.43c.37,0,.58-.2.58-.47s-.21-.47-.58-.47h-.7v.94Z"/></svg>