<svg id="Layer_1" data-name="Layer 1" xmlns="http://www.w3.org/2000/svg" viewBox="0 0 345 231"><defs><style>.cls-1{fill:#fff;}</style></defs><title>klipsch-logo</title><path class="cls-1" d="M331,79.39c-13.39-16.39-35.34-30-62.75-39.6S207.92,24.62,172.5,24.62c-47.22,0-90,9.89-121.23,26.07C35.66,58.78,22.92,68.46,14,79.39S0,102.56,0,115.5s5.09,25.2,14,36.11c13.39,16.39,35.34,30,62.75,39.6s60.33,15.17,95.75,15.17c47.22,0,90-9.89,121.23-26.07,15.61-8.09,28.35-17.77,37.27-28.7s14-23.17,14-36.11S339.91,90.3,331,79.39Zm-4.7,68.39c-12.34,15.14-33.37,28.37-60.05,37.7s-59,14.84-93.75,14.84c-46.37,0-88.32-9.77-118.43-25.39C39,167.13,26.93,157.87,18.7,147.78s-12.63-21-12.63-32.28,4.4-22.17,12.63-32.28C31,68.08,52.07,54.85,78.75,45.52s59-14.84,93.73-14.84h0c46.37,0,88.32,9.77,118.43,25.4,15.06,7.8,27.14,17,35.37,27.14s12.63,21,12.63,32.28S334.53,137.67,326.3,147.78ZM142.41,124.92s3.92,3.5,14.08,3.21c13.08,0,13.75-8,13.8-8.89s0-17,0-17,2-11.6-14.79-11.6a17.49,17.49,0,0,0-12.67,5.18L142.74,92l-16.87.09V141h16.54Zm12.35-22.47c.25,4,0,11.11,0,15.56s-9.88,4.69-11.36-.25c0,0-.18-13.33-.25-15.31S154.4,96.17,154.76,102.45ZM123.43,76.22h-16.3V86.1h16.3Zm73.75,52.49c17,.1,20.12-6,20.12-6s6-6.61-.21-13.83c-5.9-6.83-29.16-.84-29.23-7.65.1-3.09,7.31-2.72,7.31-2.72s7-.2,7.06,3h16.44a13.6,13.6,0,0,0-1.34-5.67c-3.48-6.12-22.89-5.43-22.89-5.43s-22.89-.75-22.89,12.35c0,1-2,11.85,23.38,10.62,9.25-.64,8.28,3.45,8.28,3.45s1.06,3.82-7.07,3.71-8-3.34-8-3.34H171.5S169.39,129.49,197.18,128.71Zm48.72-.08c24.21.4,22.2-15.81,22.2-15.81h-16a5.8,5.8,0,0,1-6.23,5.93c-7.74,0-7.49-8.89-7.49-8.89s-.86-10.26,6.74-10.37c6.51-.1,7,5.35,7,5.35l16,0s1-14.81-23.78-14.46c-25.49-.11-23.73,19.42-23.73,19.42S219.38,128.63,245.9,128.63ZM123.4,91.83H107.1v35.81h16.3Zm176.94-2.57c-11.63-.16-13.09,5-13.23,6.84V76.24l-17.52-.06v51.71l17.74,0-.1-25.07c.74-3.7,11.5-3.78,11.5.18v24.69l16.54,0s0-29.25,0-30.36S314.63,89.47,300.34,89.26Zm26.1,18.17c0-1.13-.67-1.62-2-1.62h-2.17v5.71h.86V109h1l1.51,2.48h1L325,109A1.48,1.48,0,0,0,326.44,107.43Zm-3.33.88v-1.77h1.18c.61,0,1.25.13,1.25.84,0,.87-.66.93-1.39.93ZM104.38,127.64V76.28l-16.56,0,0,51.4Zm219.78-23.93a5,5,0,1,0,5,4.94A5,5,0,0,0,324.16,103.71Zm0,9.08a4.13,4.13,0,1,1,4-4.14A4,4,0,0,1,324.16,112.79ZM29,131l143.32,61,143-61.36-143,36.38Zm20.35-17.67,13.74,14.33h24.1L61.73,101.9,84.94,76.24h-22L49.32,91.09l0-14.85-20.47,0v51.61H49.32Z"/></svg>