<svg id="Layer_1" data-name="Layer 1" xmlns="http://www.w3.org/2000/svg" viewBox="0 0 345 231"><defs><style>.cls-1{fill:#fff;}</style></defs><title>lutron-logo</title><path class="cls-1" d="M25.54,103.44c-.4,0-.82-.06-1.23-.06s-.83,0-1.23.06L21.82,91.35q1.23-.12,2.49-.12t2.46.12l-1.23,12.09Z"/><path class="cls-1" d="M20.56,104a10.14,10.14,0,0,0-1.16.43,11.37,11.37,0,0,0-1.11.54L12.41,94.35a24.4,24.4,0,0,1,2.24-1.09c.76-.32,1.54-.61,2.31-.85L20.56,104Z"/><path class="cls-1" d="M16.49,106.22a10.21,10.21,0,0,0-.9.85,10.06,10.06,0,0,0-.81.92L5.21,100.5a24,24,0,0,1,1.64-1.88,21.72,21.72,0,0,1,1.79-1.68l7.85,9.28Z"/><path class="cls-1" d="M13.54,109.9A11.55,11.55,0,0,0,13,111a12.3,12.3,0,0,0-.41,1.16L.93,108.83a23.58,23.58,0,0,1,.82-2.36c.31-.76.66-1.51,1-2.23l10.76,5.66Z"/><path class="cls-1" d="M12.21,114.4q-.06.61-.06,1.23c0,.42,0,.83.06,1.24L.12,118.12Q0,116.89,0,115.63c0-.83,0-1.64.12-2.45l12.09,1.22Z"/><path class="cls-1" d="M12.79,119.38c.13.39.27.78.43,1.16a10.35,10.35,0,0,0,.54,1.11L3.12,127.53A23.78,23.78,0,0,1,1.19,123l11.6-3.6Z"/><path class="cls-1" d="M15,123.45a10.29,10.29,0,0,0,.85.9,11.59,11.59,0,0,0,.92.81l-7.49,9.57A24,24,0,0,1,7.4,133.1c-.6-.58-1.16-1.18-1.69-1.8L15,123.45Z"/><path class="cls-1" d="M18.68,126.4c.36.19.73.37,1.12.53s.77.29,1.16.4L17.6,139a23.41,23.41,0,0,1-2.35-.82,24,24,0,0,1-2.24-1l5.67-10.76Z"/><path class="cls-1" d="M23,127.56q.6.06,1.23.06t1.23-.06l1.26,12.09q-1.23.12-2.49.12t-2.46-.12L23,127.56Z"/><path class="cls-1" d="M28,127a10.14,10.14,0,0,0,1.16-.43c.38-.16.75-.34,1.11-.53l5.88,10.63a24.4,24.4,0,0,1-2.24,1.09c-.77.32-1.54.6-2.31.85L28,127Z"/><path class="cls-1" d="M32.09,124.78c.31-.26.61-.55.9-.84s.56-.62.81-.93l9.57,7.49a24,24,0,0,1-1.64,1.88,23.58,23.58,0,0,1-1.79,1.68l-7.85-9.28Z"/><path class="cls-1" d="M35,121.09a10.4,10.4,0,0,0,.52-1.12,12.3,12.3,0,0,0,.41-1.16l11.67,3.37a24.39,24.39,0,0,1-1.85,4.58L35,121.09Z"/><path class="cls-1" d="M36.4,116.77c0-.41.06-.82.06-1.24s0-.82-.06-1.23l12.09-1.25c.08.81.12,1.64.12,2.48s0,1.66-.12,2.46L36.4,116.77Z"/><path class="cls-1" d="M35.82,111.79a10.14,10.14,0,0,0-.43-1.16,11.39,11.39,0,0,0-.53-1.11l10.63-5.88a24.4,24.4,0,0,1,1.09,2.24c.32.76.61,1.53.85,2.31l-11.61,3.6Z"/><path class="cls-1" d="M33.62,107.72a11.79,11.79,0,0,0-.84-.9c-.3-.29-.61-.56-.93-.82l7.49-9.56c.65.51,1.27,1,1.88,1.63a23.57,23.57,0,0,1,1.68,1.8l-9.28,7.85Z"/><path class="cls-1" d="M29.94,104.76c-.37-.19-.74-.36-1.13-.52a12.23,12.23,0,0,0-1.16-.4L31,92.16a23.58,23.58,0,0,1,2.36.82c.76.31,1.51.65,2.23,1l-5.66,10.75Z"/><polygon class="cls-1" points="153.74 136.28 164.86 136.28 164.86 103.69 180.73 103.69 180.73 94.99 137.83 94.99 137.83 103.69 153.74 103.69 153.74 136.28 153.74 136.28"/><path class="cls-1" d="M228.17,115.21c0,12.28,9.53,22.13,25.74,22.12,16,0,25.74-9.84,25.74-22.12,0-12.64-9.55-21.54-25.75-21.54s-25.73,8.9-25.73,21.54Zm12.87.87c0-7.45,2.76-14,12.75-14.13s14.17,6.49,13.59,13.92c-.53,6.9-3.61,12.85-13.59,12.85-9.66,0-12.75-6-12.75-12.64Z"/><polygon class="cls-1" points="282.99 136.28 294.15 136.28 294.15 109.91 294.3 109.91 315.69 136.28 328.56 136.28 328.56 94.93 317.28 94.99 317.28 121.85 317.13 121.85 295.7 94.99 282.99 94.99 282.99 136.28 282.99 136.28"/><polygon class="cls-1" points="54.33 136.31 89.31 136.31 89.31 127.52 65.48 127.52 65.48 94.93 54.33 94.93 54.33 136.31 54.33 136.31"/><path class="cls-1" d="M135.29,94.93H124.18v25.29c0,6.32-3.58,8.82-11.79,8.82-8,0-11.74-2.47-11.73-8.82V94.93H89.57v25.29c0,11.57,8.74,17.11,22.82,17.11s22.9-5.6,22.9-17.11V94.93Z"/><path class="cls-1" d="M183.14,136.28h10.32V120.2h16.7c4.34-.07,5.13,2,5.84,6.45.87,5.44,1.57,9.82,4.69,9.63h8.75c-2.52.51-3.27-6.71-3.8-10.11-1.42-9.11-3-9.56-7.22-9.73l0-.15c5.36-1.7,8.76-5.82,8.63-10.83-.16-6.65-4.79-11.2-15.62-10.53H183.14v41.35Zm10.18-32.86h13.83c5.14,0,8.71.73,8.71,4.84,0,4.29-3.57,4.86-8.71,4.86H193.32v-9.7Z"/><path class="cls-1" d="M345,130.45a5.74,5.74,0,1,0-5.74,5.74,5.75,5.75,0,0,0,5.74-5.74Zm-.66,0a5.08,5.08,0,1,1-5.09-5.07,5.07,5.07,0,0,1,5.09,5.07Zm-7.22,3h.81v-2.71H340c1.32,0,.95,1.17,1.08,1.91l.14.8h1c-.35-.55-.23-.68-.3-1.51-.1-1.1-.12-1.2-.76-1.61a1.6,1.6,0,0,0,.83-1.58c-.08-1.43-1-1.62-2-1.62h-2.83v6.32Zm2.84-5.6c.5,0,1.29.13,1.17,1.21-.09.82-.62,1-1.17,1h-2v-2.18Z"/><path class="cls-1" d="M337.12,133.44v-6.32H340c1,0,1.93.19,2,1.62a1.6,1.6,0,0,1-.83,1.58c.64.41.66.51.76,1.61.07.83-.05,1,.3,1.51h-1l-.14-.8c-.13-.74.24-1.91-1.08-1.91h-2.08v2.71Zm2.84-5.6h-2V130h2c.55,0,1.08-.15,1.17-1,.12-1.08-.67-1.21-1.17-1.21Z"/></svg>