<svg id="Layer_1" data-name="Layer 1" xmlns="http://www.w3.org/2000/svg" viewBox="0 0 345 231">
  <title>nest-logo</title>
  <g id="Artwork_1" data-name="Artwork 1">
    <path d="M343.5,88.25V64.87H324.33V38h-23V64.87H251.07c-21.8,0-37.61,14.73-37.61,35a39.4,39.4,0,0,0,.63,7c-7.43-25.85-27-42-53.29-42-32.16,0-56.74,25.15-58.8,59.22v-5.81c0-27.92-21.4-52-49.28-53.35A51.91,51.91,0,0,0-1.5,116.85v74.52h23V117.52c0-13.41,9-25.57,22-28.5C62.29,84.82,79,98.81,79,116.54v74.83h23V133.23c2,34.29,26.16,59.59,57.74,59.59,19.29,0,36.3-11.63,45.93-25.1,7.19,16,21.24,25.1,38.58,25.1,20.11,0,40.47-13.34,40.47-38.84,0-15.27-8.54-27.75-24-35.15-2-.93-3.59-1.72-5.12-2.48l-.21-.11c-1.73-.85-3.41-1.67-5.48-2.65-10.13-4.72-15-8.19-15-15.08,0-6.07,5.22-10.64,11.68-10.64h54.74v66.64A38.43,38.43,0,0,0,339.67,193V170.38A15.36,15.36,0,0,1,324.33,155V88.25C333.75,88.26,341,88.25,343.5,88.25Zm-182.27.65c18.53,0,27.61,12.78,30.24,25.8H129.79C133,101.66,144.44,88.9,161.23,88.9Zm94.47,53.7c6.65,2.84,10.62,8.2,10.62,14.31,0,8.08-6.22,12.9-16.64,12.9-11.07,0-16.2-9.74-17.52-12.72L230.55,153H186.67c-5.71,9.52-17.21,18.3-30.58,18.3-24.12,0-36.16-18.86-37.71-37.47H217V132s.71-13.75-.66-19.95c2.59,8,8.5,16.19,20.89,22C241.75,136.27,248.58,139.48,255.7,142.6Z" style="fill: #fff"/>
  </g>
</svg>
