<svg id="Layer_1" data-name="Layer 1" xmlns="http://www.w3.org/2000/svg" viewBox="0 0 345 231"><defs><style>.cls-1{fill:#fff;}</style></defs><title>packedge-logo</title><polygon class="cls-1" points="312.33 139.5 294.04 126.08 294.04 152.88 312.33 139.5"/><polygon class="cls-1" points="345 115.6 294.04 78.12 294.04 92.06 327.57 116.67 319.54 122.55 294.04 103.81 294.04 115.7 319.56 134.21 345 115.6"/><path class="cls-1" d="M5.07,128.1h.5l.07.11,0,.08A12.41,12.41,0,0,0,10.51,133a15.2,15.2,0,0,0,7.73,1.91,16.09,16.09,0,0,0,6.43-1.29,15.59,15.59,0,0,0,5.21-3.6,16.86,16.86,0,0,0,3.47-5.47,19.39,19.39,0,0,0,0-13.75,16.66,16.66,0,0,0-3.5-5.46,15.78,15.78,0,0,0-5.42-3.6,18.59,18.59,0,0,0-7-1.29,14.43,14.43,0,0,0-6.53,1.46A16,16,0,0,0,5.64,106l-.11.13H4.85v-4.87H0v49.07H4.85V128.1Zm.62-15.47h0a11.7,11.7,0,0,1,2.47-4.06A12,12,0,0,1,12,105.84a12.47,12.47,0,0,1,5.05-1,12.47,12.47,0,0,1,5.05,1,11.71,11.71,0,0,1,6.35,6.79,15.48,15.48,0,0,1,0,10.06,11.79,11.79,0,0,1-6.35,6.79,12.47,12.47,0,0,1-5.05,1,12.47,12.47,0,0,1-5.05-1,11.89,11.89,0,0,1-3.87-2.74,11.74,11.74,0,0,1-2.48-4,15.48,15.48,0,0,1,0-10.06Z"/><path class="cls-1" d="M70.31,131.61c-.1-1-.14-2-.14-3V114.23c0-4.72-1.09-8.17-3.2-10.41s-5.55-3.39-10.46-3.39a21.09,21.09,0,0,0-7.07,1.23,15.14,15.14,0,0,0-5.71,3.57l3,3.13a13.05,13.05,0,0,1,4.46-2.6,16.71,16.71,0,0,1,5.45-.91A9.55,9.55,0,0,1,63,106.79a7.2,7.2,0,0,1,2.3,5.76h0V114H62.8q-3.06,0-6.73.28a25.91,25.91,0,0,0-6.77,1.41,12.69,12.69,0,0,0-5.18,3.41,8.92,8.92,0,0,0-2,6.26,8.58,8.58,0,0,0,1,4.12,9.1,9.1,0,0,0,2.58,3,11.78,11.78,0,0,0,3.82,1.83,17.11,17.11,0,0,0,4.73.63,12.29,12.29,0,0,0,6.43-1.59,12.84,12.84,0,0,0,4.28-4.1L65,129h.71v.36c0,.71,0,1.53,0,2.46A11,11,0,0,0,66,134h4.64C70.49,133.28,70.39,132.48,70.31,131.61Zm-5-11.16h0a13.45,13.45,0,0,1-.74,4,9.7,9.7,0,0,1-1.93,3.3,9.37,9.37,0,0,1-3.17,2.28,10.66,10.66,0,0,1-4.4.85,10,10,0,0,1-5.45-1.38,5.23,5.23,0,0,1-2.29-4.76h0v0a5.48,5.48,0,0,1,3.36-5.24,20.28,20.28,0,0,1,8.67-1.54h5.95Z"/><polygon class="cls-1" points="110.3 134.03 92.83 116.15 108.6 101.28 101.73 101.28 86.29 116.21 103.1 134.03 110.3 134.03"/><polygon class="cls-1" points="85.98 115.88 85.98 115.88 85.98 80.68 81.13 80.68 81.13 134.03 85.98 134.03 85.98 116.52 85.98 115.88"/><path class="cls-1" d="M131.56,130.47a10.51,10.51,0,0,1-4.37-.89,11.16,11.16,0,0,1-3.48-2.4,12.56,12.56,0,0,1-2.4-3.54,12,12,0,0,1-1.06-4.24l0-.39h27.07v-1.42a21.88,21.88,0,0,0-1.13-7.29,15.34,15.34,0,0,0-3.17-5.38,13.73,13.73,0,0,0-4.92-3.34,16.7,16.7,0,0,0-6.3-1.15,17.57,17.57,0,0,0-6.73,1.26,15.67,15.67,0,0,0-5.32,3.53,16,16,0,0,0-3.49,5.46,18.76,18.76,0,0,0-1.26,7,19.44,19.44,0,0,0,1.15,6.74,16.07,16.07,0,0,0,3.29,5.46,15.48,15.48,0,0,0,5.21,3.67,16.89,16.89,0,0,0,6.94,1.36,20.37,20.37,0,0,0,8.15-1.51,16.39,16.39,0,0,0,6.2-5l-3.65-2.84a14.06,14.06,0,0,1-4.39,3.61l-.1-.19.1.19A13.56,13.56,0,0,1,131.56,130.47Zm-11.33-15.7,0-.16h0a10.67,10.67,0,0,1,11.31-9.76,10.39,10.39,0,0,1,7.55,2.67,10.06,10.06,0,0,1,2.9,7.12V115H120.19Z"/><path class="cls-1" d="M189.35,80.68H184.5v25.47h-.68l-.06-.08,0,0a16,16,0,0,0-5.21-4.13,14.43,14.43,0,0,0-6.53-1.46,18.59,18.59,0,0,0-7.05,1.29,15.78,15.78,0,0,0-5.42,3.6,16.83,16.83,0,0,0-3.5,5.46,19.39,19.39,0,0,0,0,13.75,17,17,0,0,0,3.47,5.47,15.59,15.59,0,0,0,5.21,3.6,16.1,16.1,0,0,0,6.44,1.29,15.19,15.19,0,0,0,7.72-1.91,12.41,12.41,0,0,0,4.83-4.69l.11-.19h.72V134h4.85Zm-5.69,42-.21-.07.21.08a11.79,11.79,0,0,1-6.35,6.79,13.38,13.38,0,0,1-10.1,0,11.89,11.89,0,0,1-3.87-2.74,11.56,11.56,0,0,1-2.47-4,14.48,14.48,0,0,1-.85-5,14.71,14.71,0,0,1,.84-5,11.87,11.87,0,0,1,2.48-4.06,12,12,0,0,1,3.87-2.73,13.38,13.38,0,0,1,10.1,0,11.71,11.71,0,0,1,6.35,6.79,15.45,15.45,0,0,1,0,10.05Z"/><path class="cls-1" d="M206.4,149.79h0a25.73,25.73,0,0,0,8.79,1.41c5.85,0,10.25-1.56,13.29-4.64s4.58-7.62,4.58-13.66V101.28h-4.85V107h-.73l-.06-.12,0-.08a10.75,10.75,0,0,0-2.08-2.8,11.69,11.69,0,0,0-2.8-2,13.93,13.93,0,0,0-3.25-1.18,14.71,14.71,0,0,0-3.35-.38,20.43,20.43,0,0,0-7.17,1.19,15.33,15.33,0,0,0-5.49,3.39,15.12,15.12,0,0,0-3.53,5.41,20,20,0,0,0-1.26,7.24,17.57,17.57,0,0,0,1.26,6.73,15.44,15.44,0,0,0,3.57,5.31,16.37,16.37,0,0,0,5.53,3.5,19.31,19.31,0,0,0,7.09,1.26,15,15,0,0,0,6.43-1.46,11.74,11.74,0,0,0,5.06-4.59l.11-.17h.71v4.66a22.36,22.36,0,0,1-.58,5.16,11.64,11.64,0,0,1-2.07,4.46,10.12,10.12,0,0,1-4,3.12,15.41,15.41,0,0,1-6.33,1.14,15.69,15.69,0,0,1-7-1.5,19.62,19.62,0,0,1-5.43-4.12l-3.52,4A20.53,20.53,0,0,0,206.4,149.79Zm21-27.54-.2-.07.2.07a11.54,11.54,0,0,1-6.27,6.76,12.62,12.62,0,0,1-5.23,1,11.72,11.72,0,0,1-4.72-1,12.26,12.26,0,0,1-7.45-11.42,14,14,0,0,1,.88-5,12.52,12.52,0,0,1,2.47-4,11.56,11.56,0,0,1,3.84-2.74,12.3,12.3,0,0,1,5-1,13.13,13.13,0,0,1,5,.92,11.16,11.16,0,0,1,3.92,2.62,12,12,0,0,1,2.51,4,14.28,14.28,0,0,1,.88,5.11A13.79,13.79,0,0,1,227.4,122.25Z"/><path class="cls-1" d="M258.75,130.47a10.58,10.58,0,0,1-4.37-.89,11.11,11.11,0,0,1-3.47-2.4,12.47,12.47,0,0,1-3.47-7.78l0-.39h27.06v-1.42a21.89,21.89,0,0,0-1.12-7.29,15.21,15.21,0,0,0-3.18-5.38,13.61,13.61,0,0,0-4.91-3.34,16.7,16.7,0,0,0-6.3-1.15,17.57,17.57,0,0,0-6.73,1.26,15.57,15.57,0,0,0-5.32,3.53,16.21,16.21,0,0,0-3.5,5.46,18.76,18.76,0,0,0-1.26,7,19.44,19.44,0,0,0,1.16,6.74,16.07,16.07,0,0,0,3.29,5.46,15.48,15.48,0,0,0,5.21,3.67,16.84,16.84,0,0,0,6.93,1.36,20.38,20.38,0,0,0,8.16-1.51,16.39,16.39,0,0,0,6.2-5l-3.65-2.84a14.29,14.29,0,0,1-4.39,3.61L265,129l.1.19A13.57,13.57,0,0,1,258.75,130.47Zm-11.33-15.7,0-.16h0a10.69,10.69,0,0,1,11.31-9.76,10.35,10.35,0,0,1,7.55,2.67,10,10,0,0,1,2.91,7.12V115H247.39Z"/><path class="cls-1" d="M279.74,103.57a4,4,0,0,1-3-1.22,4.11,4.11,0,0,1,0-5.88,4.27,4.27,0,0,1,6,0,4.13,4.13,0,0,1,0,5.88A4.08,4.08,0,0,1,279.74,103.57Zm0-7.76a3.61,3.61,0,1,0,0,7.21,3.61,3.61,0,1,0,0-7.21ZM281.9,102h-1.17l-.51-1.21c-.26-.61-.54-.91-.84-.91h-.44V102H278V96.75h1.57a2.59,2.59,0,0,1,1.51.38,1.25,1.25,0,0,1,.53,1.05,1.41,1.41,0,0,1-.32.92,1.64,1.64,0,0,1-1,.5v0c.29.06.58.38.87,1Zm-3-4.45v1.58h.7c.65,0,1-.27,1-.79a.69.69,0,0,0-.26-.61,1.47,1.47,0,0,0-.82-.18Z"/></svg>