<svg id="Layer_1" data-name="Layer 1" xmlns="http://www.w3.org/2000/svg" viewBox="0 0 345 231"><defs><style>.cls-1{fill:#fff;}</style></defs><title>SI-logo</title><rect class="cls-1" x="11.79" y="37.06" width="56.91" height="56.91" transform="translate(58.11 -9.27) rotate(45)"/><rect class="cls-1" x="61.78" y="87.05" width="56.91" height="56.91" transform="translate(108.1 -29.97) rotate(45)"/><rect class="cls-1" x="11.79" y="137.03" width="56.91" height="56.91" transform="translate(128.8 20.02) rotate(45)"/><path class="cls-1" d="M345,177.54a10.54,10.54,0,1,1-10.5-10.25A10.3,10.3,0,0,1,345,177.54Zm-18.44,0a7.94,7.94,0,0,0,8,8.19,7.84,7.84,0,0,0,7.81-8.13,7.91,7.91,0,1,0-15.81-.06Zm6.31,5.38H330.5V172.67a20.36,20.36,0,0,1,3.93-.32,6.48,6.48,0,0,1,3.57.75,2.85,2.85,0,0,1,1,2.25,2.64,2.64,0,0,1-2.13,2.38v.12a3.06,3.06,0,0,1,1.88,2.51,7.81,7.81,0,0,0,.75,2.56h-2.56a8.44,8.44,0,0,1-.82-2.5c-.19-1.13-.81-1.63-2.12-1.63h-1.13Zm.06-5.82h1.13c1.31,0,2.37-.43,2.37-1.5s-.68-1.56-2.18-1.56a6,6,0,0,0-1.32.12Z"/><rect class="cls-1" x="277.45" y="44.32" width="31.44" height="143.6"/><path class="cls-1" d="M220,107.41l-17.63-7.22c-12.1-4.89-21.24-7.86-21.24-16.36,0-7.86,7-12.53,17.63-12.53h45.42v-27H198.71c-28.67,0-49.28,18.27-49.28,41.21,0,20.18,13.6,32.08,28,37.81L195.31,131c12.11,5.1,20,7.86,20,16.57,0,8.2-6.27,13.26-18.95,13.36v0H150.91v27h45.42v0c32.29-.41,51-20.17,51-42.87C247.36,125.47,236.74,114.21,220,107.41Z"/></svg>