<svg id="Layer_1" data-name="Layer 1" xmlns="http://www.w3.org/2000/svg" viewBox="0 0 170 53.61"><defs><style>.cls-1,.cls-3{fill:#ce0e2d;}.cls-2{fill:#ffc629;}.cls-3{stroke:#ffc629;stroke-width:1.16px;}</style></defs><title>signature-theaters-logo</title><path class="cls-1" d="M164.85,143.26h8.89l.35,2.31a2.46,2.46,0,0,0-1.58-.45h-2v7.46a3.81,3.81,0,0,0,.35,1.92H166a3.81,3.81,0,0,0,.35-1.92v-7.46h-1.93a2.41,2.41,0,0,0-1.57.45l.34-2.31Z" transform="translate(-85 -104.55)"/><path class="cls-1" d="M178.56,143.26v3.82h0c.45-.68.54-.82,1-.82h3.22c1.93,0,2.73,1.16,2.73,3v3.35a3,3,0,0,0,.45,1.89h-5a3,3,0,0,0,.45-1.89v-4c0-.52-.17-.69-.68-.69h-1.49c-.5,0-.68.17-.68.69v4a3,3,0,0,0,.45,1.89h-5a3,3,0,0,0,.45-1.89v-7.46a3,3,0,0,0-.45-1.89Z" transform="translate(-85 -104.55)"/><path class="cls-1" d="M190.19,151.28v.78c0,.58.27.83.93.83h4a3.81,3.81,0,0,0,1.85-.35l-.31,2h-8.19c-1.84,0-2.36-.76-2.36-2.48v-3.26c0-1.72.52-2.5,2.36-2.5h6.26c1.84,0,2.36.78,2.36,2.5v2.52Zm2.86-1.62v-1.11c0-.48-.14-.67-.59-.67h-1.68c-.46,0-.59.19-.59.67v1.11Z" transform="translate(-85 -104.55)"/><path class="cls-1" d="M205.87,146.26c2,0,2.74.85,2.74,3.11V153a2.24,2.24,0,0,0,.4,1.54h-4.13l-.21-.92h0c-.21.75-.56.92-1.67.92h-2.91c-1.84,0-2.36-.76-2.36-2.48v-.61c0-1.71.52-2.48,2.36-2.48h3.73c.57,0,.69-.14.69-.52s-.12-.53-.69-.53h-4.08a3.16,3.16,0,0,0-1.63.34l.29-2Zm-3.21,4.29c-.63,0-.87.1-.87.69v.95c0,.59.24.7.87.7h1c.78,0,.87-.12.87-1.18v-1.16Z" transform="translate(-85 -104.55)"/><path class="cls-1" d="M211,144.55l4.09-.11v1.82h3.3v1.62H215v4.35c0,.52.09.66.82.66h1.44a3.53,3.53,0,0,0,1.51-.31l-.27,1.92h-5.16c-1.3,0-2.43-.52-2.43-2.57v-4.05H209.2v-1.62H211Z" transform="translate(-85 -104.55)"/><path class="cls-1" d="M223,151.28v.78c0,.58.28.83.93.83h4a3.78,3.78,0,0,0,1.85-.35l-.31,2H221.3c-1.83,0-2.36-.76-2.36-2.48v-3.26c0-1.72.53-2.5,2.36-2.5h6.26c1.84,0,2.36.78,2.36,2.5v2.52Zm2.86-1.62v-1.11c0-.48-.14-.67-.59-.67h-1.68c-.45,0-.59.19-.59.67v1.11Z" transform="translate(-85 -104.55)"/><path class="cls-1" d="M234.28,146.26l.14,1.34h0c.4-1,.83-1.34,2.1-1.34h2V149a2.93,2.93,0,0,0-1.93-.4c-1.61,0-1.92.28-1.92,1.39v2.65a3,3,0,0,0,.45,1.89h-5a3,3,0,0,0,.45-1.89v-4.46a3.05,3.05,0,0,0-.45-1.89Z" transform="translate(-85 -104.55)"/><path class="cls-1" d="M246.61,148.73c1.91,0,2.26,1,2.26,2v1.64c0,1-.63,2.17-2.49,2.17h-7.59l-.32-2A4.76,4.76,0,0,0,241,153h3.45c.41,0,.53-.1.53-.43v-.17c0-.33-.12-.44-.53-.44h-3.56c-1.87,0-2.22-1-2.22-2v-1.6c0-1.25,1-2.1,2.59-2.1h7.07l.35,2.05a4,4,0,0,0-2.46-.54h-3.18c-.4,0-.55.11-.55.3v.36c0,.19.15.3.55.3Z" transform="translate(-85 -104.55)"/><path class="cls-2" d="M120.26,134.66l-.73.37c-.56,0-1.12.19-1.67.19,0-1.53,2-1.16,2.59-1.85,3.93-.09,3.84-4.26,7-4.26,2.22,0,1.57.74,2.54.74,2.13,0,2.5-1.85,3.7-1.85.37,0,.75.19,1.11.19l-.18-.56c.42-.6,1.43-.74,2-1.11a1.11,1.11,0,0,0,.56-.37l.93-.37.55-.55c.05,0,.23.09.32.09a20.65,20.65,0,0,1,1.9-3.19l.37-.19v-.37a5.27,5.27,0,0,0,.93-1.11c0-.27.69-.64.74-.92.64-1.34,2.22-1.71,2.59-3l3.14-3.15a4,4,0,0,0,1.85-1.29c1.34-1.85,3.38-3.15,4.77-5,.64-.88,3.37-2,4.44-2.4.09,0,.13,0,.23,0s.23,0,.32-.23h.19c.83,0,2,0,2,1.11a7.5,7.5,0,0,1-1.66,4.81c-.79.83-1.44,1.76-2.18,2.64a27.15,27.15,0,0,1-5.78,4.76c-1.62,1-1.94,1.62-3.65,2.59-.33.19-.24.56-.56.74s-.69.51-1.11.56c-.65,1.11-1.8,1.43-2.77,2.17-.28,0-.61.6-.93.74-1.8.6-3,3.56-3.88,5.18a25.11,25.11,0,0,1-2,2.78,17,17,0,0,1-1.85,2.4,38.06,38.06,0,0,1-4.26,3c-1.43.79-1.85,1.39-3.65,1.48l-.37.19h-1.11a4.62,4.62,0,0,1-2.59-.56,4.37,4.37,0,0,1-2-1.85v-2.4C121.51,134.85,120.87,134.66,120.26,134.66Zm7,3.7a6.08,6.08,0,0,0,1.8-.37,20,20,0,0,0,4.25-3.33,2.4,2.4,0,0,0,.19-.55,66.57,66.57,0,0,0,3.89-6.29,7.84,7.84,0,0,0-3.15,1.48c-.46,0-1,.69-1.48.74-.65.69-1,.78-1.25.78h-.32a1.11,1.11,0,0,0-.47.14l-.92.56c-.88.51-.69,2-1.8,2.4l.18.19c0,.78-2.22,2-2.22,3A1.39,1.39,0,0,0,127.3,138.36Zm29.32-30.25a20.19,20.19,0,0,0-1.29,1.71c0,.24-1.35,1.3-1.58,1.53-.92,1.07-1.85,2.08-2.82,3.1a60.35,60.35,0,0,0-6.15,7.35c.55,0,7.49-4.81,7.77-5,1.9-1.75,3.84-3,5-5h.18c.56-1,1.67-3.29,1.67-4.44,0-.19-.24-.19-.37-.19A2.93,2.93,0,0,0,156.62,108.11Z" transform="translate(-85 -104.55)"/><path class="cls-2" d="M139.09,135.22c2.13-2.41,2-2.78,3-3.8.27,0,1.11-.83,1.34-1s1.52-1.89,1.71-2.08c.28-.37,1-.41,1.11-.55h.37c.79,0,.79.09.79.6,0,1.29-2.32,1.9-2.32,3a3.17,3.17,0,0,1-.6,1.44c-.6.74-2,2.5-2,3.47a2.4,2.4,0,0,0,.19,1c1,0,1.52-1.06,2.26-1.34a22,22,0,0,0,2.78-2c.28-.32,1.06-.74,1.16-.92s.55-.84,1-.84c.28,0,.33.1.33.42s-1,.93-1.21,1.34a8.86,8.86,0,0,1-2.4,1.67c-1,.55-2.87,3-3.56,3-.93.46-.56.56-1.53.56s-2.68-.7-2.68-1.9S139.09,136,139.09,135.22ZM150.67,122c.46,0,.55.55.55,1s-.05.56-.05.65c-.18,0-.37,1.34-2,1.34a1,1,0,0,1-.93-.93C148.26,123.18,148.26,122,150.67,122Z" transform="translate(-85 -104.55)"/><path class="cls-2" d="M165.32,132.35a.87.87,0,0,1-.19.37c-.32,0-1.11,1-3.38,3.24-.41.18-.13.09-.37.28,0,0-.74.55-.92.74-.51.64-2,.46-3.05,1.62-2.69,1.52-1.21,1.24-2.5,2.54,0,.14-.93.92-.93,1.11l-1.48,3-.18.18c0,.23-.79,1.16-.79,1.34a8.13,8.13,0,0,0-1.15,1.9c.09,0,.09.14.09.23,0,.28-.46.55-.46.92,0,.19-.74.74-.74.93l-.79,1.16-.37.36c0,.37-1,1.07-1,1.72-.83,1.29-1.39,1.57-1.85,1.57l-.19,0c-.74.88-1.66,1-1.89,1.34l-.23.19a3.14,3.14,0,0,1-2.27,1.11c-1.94,0-2.08-.09-2.08-.74a13.15,13.15,0,0,0,.74-2.27c0-1,1-1.29,1-1.89l.74-.79.79-1.16c1.29-1.57,1.38-1.15,1.71-2,.37-.09,5-5.37,5.69-5.55,0-.19,3.23-2.45,3.23-3.29,0-.46,1.11-1.61,1.11-2.08,0-.09,0-.14-.18-.14s-.79.24-1.11.24-1.57.55-1.71.55h-.51c-1.57,0-3.7-.6-3.7-2.4V135c2.45-1.48,2.31-3.42,3.79-4.16,1.2-1,.93-.28,2.31-1.57.88,0,1.25-1.11,1.67-1.11l1.89-.74a4.13,4.13,0,0,1,1.53-.37c1.2.18,1.48,1.11,2.5,1.11.18,0,.92-.56,1.11-.56a2.92,2.92,0,0,0,1.53-.74c.32,0,.23,0,.37.19a.44.44,0,0,1,.37-.42c.5,0,.64.42.64.79l0,.55c0,.51-1.62,2.41-2.32,3.05-1.75,2.6-4.34,4-4.34,5.88h.18l1.57-.32c1.39-1,1.39-.56,2.36-1.53a7.3,7.3,0,0,0,2-1.8c.88-1.16,1.39-1.21,1.62-1.21C165.13,132.12,165.32,132.21,165.32,132.35Zm-18,14.06c-.51.46-.6,1.62-1.48,1.71-.83,1.39-2.49,2.08-2.49,3.61a8.53,8.53,0,0,1-.93,2.45h.23c.6,0,.7-.18,1.3-.78.32-.37,2.63-2.78,2.82-3.2l.37-.37c0-.6,1-1.11,1-1.89.88-.7,1.66-2.92,2.22-3.52-.09-.14-.14-.18-.37-.18A8,8,0,0,1,147.32,146.41ZM150.75,136a1.3,1.3,0,0,0,.6,1.15,3.91,3.91,0,0,0,1-.18c.05,0,.18,0,.28,0,1.38,0,4.21-3.24,4.21-4.17,0-.55,1.11-1.76,1.11-2.4a3,3,0,0,1,.18-.65c0-.09.05-.42.05-.65s-.1-.64-.42-.64c-1.85,0-1.48.78-2.45.78l-2.08,1.9c0,.41-.93,1.34-1.11,1.8l-.74,1.53-.19.18-.41,1.11Z" transform="translate(-85 -104.55)"/><path class="cls-2" d="M177.2,135.4c.47-.88,2.18-2.49,2.18-3a.11.11,0,0,0-.1-.09c0-.69,1-1.53,1-2a.2.2,0,0,0,0-.14.71.71,0,0,0,.09-.32c0-.51-.56-1-1.62-1a4.53,4.53,0,0,0-1.9.92,42.88,42.88,0,0,0-3.88,3.29c-.56.64-1.62,1.75-3.89,4.11,0,.19-.92,1.53-1.34,1.53-.65,0-1.2.56-2,.56-.51,0-1.06,0-1.06-.79s.69-1.07.79-1.48c0-.19.74-.93.74-1.11l.18-.56,2.5-2.49a9.93,9.93,0,0,0,.92-2.09,1.86,1.86,0,0,0-.18-.6c-2,0-3.33,1.62-4.4,2.32a.92.92,0,0,1-.46.09c-.14,0-.18-.09-.18-.19s0-.18.18-.32c.46-.42,1.11-1.16,1.39-1.39.65-.6,1.34-.69,2.54-1.62a3,3,0,0,1,1.85-.92h1.16c.32.32,1.06.37,1.06,2.08a8.63,8.63,0,0,1,0,1,.57.57,0,0,0,.37.18c.78,0,2-1.52,3-2.31,1.25-.92,2.59-1,5.28-1,.83,0,1.71.23,1.71,2.31a7.84,7.84,0,0,1-.37,1.9c-1.16,1.39.14,1-1.53,2.68,0,.19-.92.93-.92,1.11-.65,1.3-1.53,1.62-1.53,2.27l.37.37a5.5,5.5,0,0,0,2.31-.79,10.42,10.42,0,0,0,2.69-2.26,13.49,13.49,0,0,0,1.24-1.67c.33-.69,1.58-1.9,2-1.9a.13.13,0,0,1,.14.14c0,.47-1.48,2-1.81,2.55-.51.88-1.89,2.36-4.71,4.35-.19,0-.93.92-1.16.92a4.83,4.83,0,0,1-1.57.42,3.77,3.77,0,0,1-1.62-.23c-.37-.93-1.16-1.67-1.53-2.69C175.12,136.42,175.54,136.79,177.2,135.4Z" transform="translate(-85 -104.55)"/><path class="cls-2" d="M191.17,138.22c-.18,0-.92.56-1.11.56h-1l-.6.42a.94.94,0,0,0-.33.14h-.23c-.18,0-.92-.14-1.11-.14l-.55-.19a2.44,2.44,0,0,1-.79-.41l-.41-.38c0-.23-.37-.55-.37-.55,0-.23-.47-1.06-.47-1.25v-.18l.88-1.62.6-.6s.56-.51.56-.74l.55-.74c.19-.19.93-1.16,1.11-1.35s1-.92,1-.92l.93-.6c.23,0,1.16-.93,1.34-.93a3.09,3.09,0,0,1,1.16-.55c.14,0,1.66-.56,1.89-.56l.37-.18h3.24s.37.37.56.37h.74c.18,0,.74-.6.92-.6h1.58l.18.41a1.82,1.82,0,0,0,.19.56c0,.18-.19.74-.19.92l-.42.37-.55.79-.56.32c-.23.23-.78.6-.78.79a12.49,12.49,0,0,1-.74,1.16l-.19.37c0,.23-.37.6-.37.6l-.74.74-.37.6c0,.18-.41.74-.41.92v.56h1.15a1.82,1.82,0,0,1,.56-.19c.18,0,1.11-.55,1.34-.55a3.61,3.61,0,0,0,.74-.37l.6-.37.32-.23c.24,0,.61-.37.61-.37l.78-.74.69-.65.56-.65.37-.09.23.09a.52.52,0,0,1,.14.33l-.28.41-1,1-.65.69a14.63,14.63,0,0,0-1.24,1.11l-.24.37c-.18.19-1.11,1.11-1.34,1.3l-.32.23c-.42.18-2.5,1.9-2.87,2.08l-.37.19c-.18,0-.92.18-1.15.18H195a8.16,8.16,0,0,1-1.52-.78c-.19,0-.56-.33-.56-.33-.23-.23-.78-.79-1-1C191.73,138,191.36,138.22,191.17,138.22Zm-3-1.34a4.82,4.82,0,0,0,.19.79l.37.18h1.11a8.66,8.66,0,0,0,.79-.6c.18-.18.92-.74.92-.74.19-.18.79-.74.93-.92l.6-.74c.18-.23,1.71-1.71,1.89-1.94s.93-1.12,1.16-1.3l.19-.23.18-.37.74-.56.23-.18v-.6a1.63,1.63,0,0,0-.23-.56c0-.18-.55-.37-.55-.37h-1.53l-.37.19-1,.18a15.48,15.48,0,0,0-1.71.74l-.56.42-.74.74s-.37.37-.37.6l-.18.32-.56.79c0,.19-.41,1-.41,1.16a3.39,3.39,0,0,1-.56,1.15l-.37.56a7.93,7.93,0,0,0-.19.92v.37Zm9.72-8.88c0,.09,0,.19.14.19s.14-.1.14-.19,0-.18-.14-.18S197.88,127.91,197.88,128Z" transform="translate(-85 -104.55)"/><path class="cls-2" d="M202.23,135.4c0-.18.74-.74.74-.92a3.19,3.19,0,0,0,.87-1.62l.61-1.39c.78-.83,1-1.48,1.71-2.17,1.43-2.27,5-5.37,5-6.94-.23-.51-.42-.56-.79-.56h-.55c-.33,0-2.82.37-3.19.37h-5a2.76,2.76,0,0,1-1.25.19,1.67,1.67,0,0,1-1-.19h-6.56a17.12,17.12,0,0,0-4.44-.37c0,.1-3.89.1-5.46.19H181.6c-1.11,0-1.11-.19-1.11-.32,0-.33.69-.33,1.34-.56h.6c3,0,4.53,0,8.42,0,6.29,0,.55,0,12.07,0l2.78,0h.41c1.11,0,3.19,0,5.88,0,1.11-.61,1.61-3.66,4.62-5,.65,0,.65-.93,1.85-.93a.9.9,0,0,1,.83.37,2.33,2.33,0,0,1-.37.93c0,.18-1,.92-1,1.11s-.37.41-.37.74c0,.74-1,1.29-1.15,1.94,0,.18-.23.6-.23.83l10.5,0c.36,0,3.19-.24,3.6-.24h1a3,3,0,0,0,1.3-.18c1.71,0,3.1.18,4.53.18.19,0,1.16.24,1.34.24a.5.5,0,0,1,.28-.1,6,6,0,0,1,2,.65c-.79,1.16-1.43.92-2.08,1.11h-3.42l-.56-.14a4.23,4.23,0,0,0-1.11.14c-.09,0-1.06-.14-1.57-.14h-.19c-.37,0-2.68.14-3.05.14-.09,0-.19,0-.37,0-.65,0-1.85-.28-3.33-.28.32,0-4.07.23-5.32.23a11.11,11.11,0,0,1-3.1-.32c-.92.37-1.76-.19-2.87,1.29-2.17,3.47-5,5.69-6,8.7-.14.41-.84,1.06-.84,1.62,0,.23-.78,1-.78,1.15s-.37.56-.37.74c0,.51-.19,1-.19,1.71.74,0,1,0,1.16-.23.14,0,3.24-1.85,3.61-2.59.23,0,1-.41,2.49-1.8.33-.32.65-.7,1-.7.18,0,.23.1.23.38s-.33.6-.65.88a16.14,16.14,0,0,1-3.61,3.09c-.18,0-.78.74-1,.74-.14.23-1.71,1-1.9,1.21a11.32,11.32,0,0,1-1.34.92h-1.25a.43.43,0,0,1-.41-.18c-.42-.14-2.64,0-2.64-2.5C201.3,136,202,136,202.23,135.4Z" transform="translate(-85 -104.55)"/><path class="cls-2" d="M218.23,136.88c-1.06.93-2.73,1.25-3,1.53h-2.83c-.36,0-.92-.83-1.15-1a6.64,6.64,0,0,0-.14-1.44,5.23,5.23,0,0,1,2-3.28l3.23-3.24c.28-1.25,1.9-1.29,2.41-1.29s.88,0,1,.55a2.82,2.82,0,0,1-.42,1.11c0,.19-.93.74-.93,1,0,.79-1.06,1.62-1.75,2.32a18.73,18.73,0,0,0-1.48,2.45s-.6.69-.6,1.11a.79.79,0,0,0,.74.28c1.1,0,1.48-.88,2.36-1.21.41-.51.92-.18,2.45-1.71.13-.14,1.57-2.59,2.63-2.87.19-.18,1-1.15,1.16-1.15a5.39,5.39,0,0,1,1.48-.74c.55-.28,1.39-1.21,1.94-1.21s.74.61.74,1-.74.88-.74,1.15c-.37.79-.55.51-1,1.16l-2.45,2.5c-.09.18-1.57,2-2.32,3.19v.23a.77.77,0,0,0,.24.55c1.15,0,1.71-.18,4.53-1.71.23,0,.79-.74,1-.74.19-.18.56-.6.74-.6a20.31,20.31,0,0,0,2.73-2.22,2.61,2.61,0,0,1,.83-.46l.23.28c0,.27-.51.69-.83,1a14.83,14.83,0,0,1-2,2,9.29,9.29,0,0,0-1.85,1.48c-.19.19-1.53.74-1.76,1-.56,0-1.25,1.12-2.08,1.12a29.09,29.09,0,0,0-2.92.87c-.27,0-1-.92-1.2-1.06-.42-.42-.51-1.9-.79-1.9Zm-3.19.93a.2.2,0,0,0,.14.18c.14,0,.14-.09.14-.18s0-.19-.14-.19S215,137.72,215,137.81Zm2.08-8.7c0,.1,0,.19.14.19s.14-.09.14-.19-.05-.18-.14-.18S217.12,129,217.12,129.11Z" transform="translate(-85 -104.55)"/><path class="cls-2" d="M236,131.61v-.46c0-.88-.33-1.34-.65-1.34-.23.18-1.43,1.11-1.62,1.29a3,3,0,0,0-.92.74s-.7.37-.7.42-.28.18-.46.18-.14,0-.14-.14a2,2,0,0,1,.65-.69,5.81,5.81,0,0,1,1.06-1,4.52,4.52,0,0,0,.7-.64,27.76,27.76,0,0,0,3-3.1c.7-.61.56-1.25,1.39-1.25a.66.66,0,0,1,.23.55v.19c0,.46-.23.51-.41.78a3.21,3.21,0,0,0-.24,1.44c0,.92.24,1.48.24,2.54-.19,0-.19.74-.79,1.34,0,.61-1.34,1-1.34,1.85,0,.23-.74,2.22-.74,2.5a1.18,1.18,0,0,0,0,.19c.28.87.42,1.29,1,1.29a2.39,2.39,0,0,0,.7-.14l1.06-.51a5.52,5.52,0,0,1,1.62-.83l.93-1.34.55-.19,1.8-2.08.47-.83a.44.44,0,0,1,.41-.19c.14,0,.19.19.19.47l-.83,1.2a29,29,0,0,1-3,3.33c-1.48,1.57-1.85,1.53-2.32,1.71l-1.11.6H234.7l-.19-.18a.38.38,0,0,1-.28.18c-1.06,0-2.54-2.68-2.54-3A17.66,17.66,0,0,1,236,131.61Z" transform="translate(-85 -104.55)"/><path class="cls-2" d="M241.22,137.16v-.6a3.09,3.09,0,0,1,0-.65c.05-.09.1-.23.14-.32l.14-.28a2.92,2.92,0,0,1,.56-1.25c0-.18.92-1.15.92-1.34.18-.18.79-1.53,1-1.71a10,10,0,0,0,1.34-1.71c0-.19.93-.74.93-.93s.23-.23.32-.37a5.8,5.8,0,0,1,2.92-2.26c1.71.27,1.94,1.2,1.94,1.8a4.48,4.48,0,0,1-.05.46c-.32,2.13-6.61,6.8-6.61,8.14,0,1.53.28,1.76,1.06,1.76.33,0,.7-.05,1.16-.05a12.5,12.5,0,0,1,3.05-1.71v.37a3,3,0,0,1-1.9,1.34,9.36,9.36,0,0,1-3.69,1.72H242.7c-.37,0-.79-.7-.88-.79A2.58,2.58,0,0,1,241.22,137.16Zm7.63-8c-1.11,0-1.11.56-1.67.74-.92,1.67-1.43,2.41-1.43,3.06l.42.09c.5-.56,3-2.64,3-3.66a.33.33,0,0,0,0-.23Zm-1.3-1.11h.19l-.19-.18Zm2.36-1.76c0,.1.05.24.14.24s.14-.14.14-.24-.05-.18-.14-.18S249.91,126.15,249.91,126.24Zm5.09,5.92c0,.42-.23.7-.79,1.3-.74.88-2.82,2.17-3.23,2.68h-.56V136c.51-.56,1-1,3.79-3.61l.42-.19Z" transform="translate(-85 -104.55)"/><circle class="cls-1" cx="100.8" cy="126.26" r="15.8" transform="translate(-113.06 119.15) rotate(-88.49)"/><path class="cls-3" d="M112.16,126.26a11.37,11.37,0,1,1-11.36-11.37A11.37,11.37,0,0,1,112.16,126.26Z" transform="translate(-85 -104.55)"/><path class="cls-2" d="M100.36,117.07c-4.78,3.77-3.13,7.72-.25,11a5.92,5.92,0,0,1,1.23,6.46c1.25.08,3.34-3,2.4-5.26S96.94,122.66,100.36,117.07Z" transform="translate(-85 -104.55)"/></svg>