<svg id="Layer_1" data-name="Layer 1" xmlns="http://www.w3.org/2000/svg" viewBox="0 0 345 231"><defs><style>.cls-1{fill:#fff;}</style></defs><title>sonance-logo</title><path class="cls-1" d="M97.77,206.31l-3.32,2a5.76,5.76,0,0,0-1.77-2.1,4.71,4.71,0,0,0-5.08.4A3,3,0,0,0,86.47,209c0,1.32,1,2.38,3,3.19l2.7,1.1a11.48,11.48,0,0,1,4.82,3.26,7.32,7.32,0,0,1,1.53,4.71A8.27,8.27,0,0,1,96,227.39a8.58,8.58,0,0,1-6.23,2.45,8.32,8.32,0,0,1-5.82-2.08,9.57,9.57,0,0,1-2.82-5.88l4.14-.91a7,7,0,0,0,1,3.3,4.66,4.66,0,0,0,6.85.47,4.39,4.39,0,0,0,1.27-3.24,4.74,4.74,0,0,0-.22-1.45,3.76,3.76,0,0,0-.69-1.21,5.69,5.69,0,0,0-1.2-1,12.25,12.25,0,0,0-1.75-.92l-2.61-1.08q-5.56-2.36-5.56-6.88a6.54,6.54,0,0,1,2.33-5.1,8.41,8.41,0,0,1,5.8-2.07C93.58,201.75,96,203.27,97.77,206.31Z"/><path class="cls-1" d="M102.05,215.69a13.25,13.25,0,0,1,4.19-9.82,13.8,13.8,0,0,1,10-4.1,14.17,14.17,0,0,1,14.08,14.08,13.3,13.3,0,0,1-4.18,9.91,14.31,14.31,0,0,1-19.53.45A13.29,13.29,0,0,1,102.05,215.69Zm4.12.05a9.79,9.79,0,0,0,3,7.39,10,10,0,0,0,14.12-.06,10.5,10.5,0,0,0,0-14.52,9.55,9.55,0,0,0-7.12-2.94,9.65,9.65,0,0,0-7.13,2.94A9.79,9.79,0,0,0,106.17,215.74Z"/><path class="cls-1" d="M135.48,229.35V200.44l19.75,20.65V202.28h4.09V231l-19.75-20.6v18.95Z"/><path class="cls-1" d="M181.92,222.78H170.33l-3,6.57h-4.4l13.4-28.77,12.92,28.77h-4.47Zm-1.67-3.84-4-9.21L172,218.94Z"/><path class="cls-1" d="M192.61,229.35V200.44l19.75,20.65V202.28h4.09V231L196.7,210.4v18.95Z"/><path class="cls-1" d="M243.19,203.73v4.84a11.36,11.36,0,0,0-7.33-3,9.31,9.31,0,0,0-7,3A10.1,10.1,0,0,0,226,215.9a9.86,9.86,0,0,0,2.88,7.19,9.48,9.48,0,0,0,7,2.93,8.64,8.64,0,0,0,3.67-.7,10.81,10.81,0,0,0,1.74-.95,20.79,20.79,0,0,0,1.91-1.44v4.93a14.8,14.8,0,0,1-7.37,2,13.6,13.6,0,0,1-9.91-4.05,13.43,13.43,0,0,1-4.08-9.85,13.91,13.91,0,0,1,3.42-9.23,13.62,13.62,0,0,1,10.89-5A13.84,13.84,0,0,1,243.19,203.73Z"/><path class="cls-1" d="M263.28,206.12H252.43v6.5H263v3.84H252.43v9h10.85v3.84H248.34V202.28h14.94Z"/><rect class="cls-1" x="80.79" y="157.25" width="26.17" height="26.17"/><rect class="cls-1" x="106.96" y="105.1" width="52.15" height="52.15"/><rect class="cls-1" x="159.1" width="105.1" height="105.1"/></svg>