<svg id="Layer_1" data-name="Layer 1" xmlns="http://www.w3.org/2000/svg" viewBox="0 0 345 231"><defs><style>.cls-1{fill:#fff;}</style></defs><title>sony-logo</title><path class="cls-1" d="M31.59,85.12a52.56,52.56,0,0,0-20.71,4.17C4.91,92,0,96.24,0,103.4a14.55,14.55,0,0,0,4,10c1.75,1.61,4.55,4.34,11.86,5.92,3.25.72,10.21,1.79,17.19,2.57S46.7,123.33,49.47,124c2.2.57,5.87,1.34,5.87,5.46s-3.88,5.39-4.57,5.66-5.33,2.41-13.73,2.41a59.86,59.86,0,0,1-16.34-2.8,20,20,0,0,1-9.45-6.36,11,11,0,0,1-1.91-6H1.69v21.24h8.44v-2.87a1.2,1.2,0,0,1,1.82-1,63.09,63.09,0,0,0,12.37,4,52.2,52.2,0,0,0,12.77,1.6,54.77,54.77,0,0,0,17.14-2.41,30.6,30.6,0,0,0,10.21-5,14,14,0,0,0,5.43-11.18,15.48,15.48,0,0,0-4.4-11A18.59,18.59,0,0,0,60,112a40.64,40.64,0,0,0-6.72-2.32,179.08,179.08,0,0,0-18.86-2.88c-4.91-.54-13.49-1.24-16.88-2.3a4.07,4.07,0,0,1-3.17-3.77c0-1.74,1-3.22,2.89-4.45,3-1.88,9.17-3,15.5-3a44.72,44.72,0,0,1,18,3.49,22.93,22.93,0,0,1,4.29,2.56,12.84,12.84,0,0,1,4.2,7h6.83V87.82H58.5V90c0,.7-.72,1.58-2.1.86A57.92,57.92,0,0,0,31.59,85.12Z"/><path class="cls-1" d="M122.9,145.88c-12.48,0-24.05-3.76-31.83-10.72a26.28,26.28,0,0,1-8.66-19.71,26.67,26.67,0,0,1,8.66-19.68C98.28,89.24,111,85.12,122.9,85.12c13.29,0,23.85,3.35,31.92,10.69a26.21,26.21,0,0,1,8.55,19.64,27.23,27.23,0,0,1-8.55,19.71c-7.5,7-19.36,10.72-31.92,10.72m0-8A24.11,24.11,0,0,0,140,131.3c4.28-4.28,6.26-9.47,6.26-15.85A21.93,21.93,0,0,0,140,99.58a25.61,25.61,0,0,0-34.21,0,23.33,23.33,0,0,0,0,31.72,24.36,24.36,0,0,0,17.11,6.58"/><path class="cls-1" d="M171.68,88.55v6.73h5.9c4.26,0,4.57,2.39,4.57,4.44V131.3c0,1.89.12,4.47-2.61,4.47h-7.31v6.75h31.16v-6.75H195.8c-3,0-3.2-1.35-3.25-4.33v-27l42.75,38.12h10.85l-.56-43.06c.07-3.12.23-4.2,3.48-4.2h6.81V88.55H224.16v6.71h7c3.18,0,3.75,1.27,3.77,4.2L235.3,122,198.22,88.55Z"/><path class="cls-1" d="M285.52,135.77v6.75h37v-6.77h-7l-1.84-.11a2.09,2.09,0,0,1-1.44-1.25l-.14-1.5V122.25l.26-1c.5-.59,19.65-22.45,20.52-23.39,1.85-2.13,2.86-2.59,5.33-2.59H345V88.55H314.51v6.71h4.58a1.32,1.32,0,0,1,1.15,2.11l-13,15.13-.37,0L294.29,97.37c-.91-1.13-.16-2.11.83-2.11h4.49V88.55H262.4v6.71H269a7.86,7.86,0,0,1,5.82,3c.88.94,19.8,22.41,20.26,23s.47.68.47.94v10.64l-.12,1.5a2.38,2.38,0,0,1-1.47,1.25l-1.85.13Z"/></svg>