<?xml version="1.0" encoding="utf-8"?>
<!-- Generator: Adobe Illustrator 23.0.3, SVG Export Plug-In . SVG Version: 6.00 Build 0)  -->
<svg version="1.1" id="Layer_1" xmlns="http://www.w3.org/2000/svg" xmlns:xlink="http://www.w3.org/1999/xlink" x="0px" y="0px"
	 viewBox="0 0 345 231" style="enable-background:new 0 0 345 231;" xml:space="preserve">
<style type="text/css">
	.st0{fill:#FFFFFF;}
</style>
<g>
	<path class="st0" d="M0,121.5h7.5v4.8c0,2.4,0,4.8,3.7,4.8c3.7,0,3.7-2.4,3.7-6.1c0-2.9-0.6-4.1-2.6-5.5l-7.2-4.8
		c-3.8-2.6-4.9-5.5-4.9-9.6c0-3.2,0.3-6.3,3-8.5c1.5-1.3,4.3-2.4,8.2-2.4c4.4,0,10.4,1.8,10.4,8.8v4.1h-7.5v-3c0-2,0-4.2-3.3-4.2
		c-2,0-3.5,0.8-3.5,4.1c0,3.4,0.8,4.2,2.4,5.3l7.4,5.1c1.5,1,3,2.5,3.9,4c1.1,1.9,1.1,3.1,1.1,6.4c0,3.7,0,5.9-1.3,8.1
		c-2.3,3.7-7,4.1-9.7,4.1c-6.4,0-11.4-2.4-11.4-9.3V121.5z"/>
	<path class="st0" d="M51.7,127.2c0,3-0.6,5.1-2.2,6.7c-2.4,2.5-6.3,2.9-9,2.9c-9.2,0-11.5-4.4-11.5-9.6v-22.9c0-1.7,0.1-4.8,2.1-7
		c1.6-1.7,4.6-3.1,9.3-3.1c3.7,0,6.6,1,8.5,2.6c2,1.7,2.7,3.8,2.7,7.8V127.2z M44.1,105c0-2.1,0-5.1-3.7-5.1c-3.9,0-3.9,3.1-3.9,5.4
		v20.7c0,2.3,0.1,5,3.8,5c3.7,0,3.7-2.8,3.7-4.8V105z"/>
	<path class="st0" d="M59.1,95h7.6v30.5c0,2.2,0,4.9,3.5,4.9c3.5,0,3.5-2.7,3.5-5V95h7.6v31.7c0,5.3-2.3,10.1-11.3,10.1
		c-7.1,0-11-3.5-11-10.3V95z"/>
	<path class="st0" d="M112.7,136h-9.5l-7.3-30.7l0.7,30.7h-7.1V95h9.7l7.4,30.1L105.8,95h6.9V136z"/>
	<path class="st0" d="M120.9,95h12.2c2.4,0,5.4,0,7.9,2.6c2.1,2.2,2.4,5,2.4,8.2V125c0,5.7-0.9,11-10.4,11h-12.1V95z M128.5,130
		c3.5,0,4.1,0,4.8-0.1c2.7-0.4,2.7-2.8,2.7-4.3v-20.4c0-3.7-1.2-4.2-4.5-4.2h-3V130z"/>
	<path class="st0" d="M150.8,95h12.2l4.9,28.7l4.8-28.7h12.1v41h-7.5l0.7-35.5l-6.6,35.5h-7.1l-6.7-35.5l0.6,35.5h-7.4V95z"/>
	<path class="st0" d="M197.6,95h8.6l7.7,41h-7.7l-1-6.7h-7l-1.1,6.7h-7.5L197.6,95z M199.2,123h5.2l-2.5-17.6L199.2,123z"/>
	<path class="st0" d="M233.1,110v-5.2c0-3.1-0.5-4.8-3.8-4.8c-3.3,0-3.5,2.6-3.5,4.5v21.9c0,2.4,0.4,4.6,3.8,4.6
		c3.5,0,3.5-2.6,3.5-5.1v-5.3h7.5v5.8c0,3.3,0,10.4-11.1,10.4c-2.1,0-5.6-0.4-8-2c-3.2-2.1-3.2-5.3-3.2-7.6V105c0-3.3,0.2-5.6,2-7.6
		c3-3.2,7.6-3.3,9.2-3.3c11.1,0,11.1,6.6,11.1,9.5v6.3H233.1z"/>
	<path class="st0" d="M247.2,95h7.5v16.1h6.9V95h7.5v41h-7.5v-18.7h-6.9V136h-7.5V95z"/>
	<path class="st0" d="M277.4,95h7.5v41h-7.5V95z"/>
	<path class="st0" d="M316.4,136h-9.5l-7.3-30.7l0.7,30.7h-7.1V95h9.7l7.4,30.1L309.5,95h6.9V136z"/>
	<path class="st0" d="M324.6,95h19.8v6.3h-12.3v9.6h11.5v6.2h-11.5v12.6H345v6.3h-20.4V95z"/>
</g>
</svg>
