<?xml version="1.0" encoding="utf-8"?>
<!-- Generator: Adobe Illustrator 23.0.3, SVG Export Plug-In . SVG Version: 6.00 Build 0)  -->
<svg version="1.1" id="Layer_1" xmlns="http://www.w3.org/2000/svg" xmlns:xlink="http://www.w3.org/1999/xlink" x="0px" y="0px"
	 viewBox="0 0 345 231" style="enable-background:new 0 0 345 231;" xml:space="preserve">
<style type="text/css">
	.st0{fill:#FFFFFF;}
</style>
<g>
	<path class="st0" d="M317.7,189.9h-0.4l-290.6-0.2l-27.2-26.4v-0.4l0.1-96.2L28,41.1h0.4l288.6,0.1l27.4,25.5v98.9L317.7,189.9
		L317.7,189.9z M27.5,187.6l289.4,0.2l25.5-23.1v-97l-26.2-24.4L28.9,43.2L1.8,67.7l-0.1,94.8L27.5,187.6L27.5,187.6z"/>
	<g>
		<path class="st0" d="M75.2,102.5l-17.8,2.8V97h-6.5v6.5l24.3,13.7v24.6l-8.8,9H42.3l-9.1-9.3v-13.8l17.7-2.8v10.9h6.5v-8.6
			l-24.3-13.6v-22l8.7-9.1h24.6l8.8,8.7V102.5z"/>
		<path class="st0" d="M117.5,99.2h-10.5v51.6H89.4V99.2H78.9V82.4h38.6V99.2z"/>
		<path class="st0" d="M163.8,108.4l-7.2,7.5l7.2,7.2v27.8h-17.6v-27.5h-7v27.5h-17.6V82.4h33.2l9,9.1V108.4z M146.2,108.7v-12h-7
			v12H146.2z"/>
		<path class="st0" d="M209.9,141.9l-8.8,8.9H177l-8.8-8.9V91.5l8.8-9.1h24.1l8.8,9.1V141.9z M192.2,135.6v-38h-6.4v38H192.2z"/>
		<path class="st0" d="M264,150.8h-19.7L233,121.3l-4.1-15.1l1.7,15.6v29h-15.9V82.4H235l11.2,29.6l3.9,13.6l-1.7-14.1V82.4H264
			V150.8z"/>
		<path class="st0" d="M310.9,141.9l-9,8.9h-24.6l-8.8-9.1V91.5l8.7-9.1h25l8.7,8.9v12.3l-17.5,2.5V97h-7.3v39h7.3v-12.8h-4.6v-15
			h22.1V141.9z"/>
	</g>
	<g>
		<path class="st0" d="M313.1,183.3H30.6L7.2,162.2V69.8l24.4-21.6H314L336.9,70v91.2L313.1,183.3L313.1,183.3z M36.3,168.5h271
			l14.8-13.8V76.4l-13.9-13.3h-271L22,76.5v79.1L36.3,168.5L36.3,168.5z"/>
	</g>
</g>
</svg>
