<?xml version="1.0" encoding="utf-8"?>
<!-- Generator: Adobe Illustrator 23.0.3, SVG Export Plug-In . SVG Version: 6.00 Build 0)  -->
<svg version="1.1" id="Layer_1" xmlns="http://www.w3.org/2000/svg" xmlns:xlink="http://www.w3.org/1999/xlink" x="0px" y="0px"
	 viewBox="0 0 345 231" style="enable-background:new 0 0 345 231;" xml:space="preserve">
<style type="text/css">
	.st0{fill:#FFFFFF;}
</style>
<g>
	<path class="st0" d="M3.4,144.3c2.7,1.6,7,3,11.5,3c8.6,0.1,13.8-5.7,13.8-13.4c0-6.2-3.2-10.2-8.6-15.5
		c-6.4-6.3-10.4-13.1-10.4-20.9C9.7,82.8,20.2,72,35.9,72c5.9,0,10.1,1.4,12,2.7l-3.5,11c-2.5-1.3-5.3-2.3-9.2-2.3
		c-7.5,0-12.5,5.2-12.5,12.5c0,4.9,2.4,8.8,8.7,14.7c6.4,5.8,10.2,13.3,10.2,20.8c0,16.7-10.6,27.3-26.8,27.3
		c-7.6,0-12.9-1.9-14.8-3.3L3.4,144.3z"/>
	<path class="st0" d="M98.7,96.4l-7.8,41.1c-1.5,8-2.3,15-2.9,20.5H76.7l0.8-8.8l-0.3-0.1c-4.7,7.1-10.4,10-16.3,10
		c-7.7,0-11-6.1-11-13.5c0-3.7,0.5-7.3,1.3-11.4l7.1-37.6H71L64,133.1c-0.6,3.7-1.1,6.7-1.1,9.7c0,3.3,1.4,5.6,4.4,5.6
		c4.9,0,10.1-6.7,11.9-16.3l6.7-35.6H98.7z"/>
	<path class="st0" d="M99.7,157.9l7.7-41.1c1.5-8,2.5-15,3.3-20.5h11l-0.9,8.7h0.2c4.7-6.4,10.2-9.7,16.7-9.7
		c8.2,0,11.2,6.1,11.2,13c0,3.5-0.5,6.9-1.3,11l-7.3,38.5h-12.8l7.5-39c0.5-2.4,0.8-4.7,0.8-7.3c0-3.3-1.4-5.6-4.4-5.6
		c-4.7,0-10.5,6.9-12.6,18.6l-6.3,33.4H99.7z"/>
	<path class="st0" d="M170.2,73.8c4-0.9,9.3-1.4,14.9-1.4c6.4,0,13.1,1.3,17.6,5.4c3.4,3.3,5.1,8,5.1,13.4c0,10.4-7.2,18.9-16.7,22
		v0.4c8.8,3,11.6,11.1,11.6,18.6c0,8-3.9,14.8-9.2,19.1c-5.7,4.8-13.9,7.1-24.6,7.1c-7.1,0-11.2-0.4-14.5-1.1L170.2,73.8z
		 M168.3,147.7c1.1,0.4,2.8,0.5,4.5,0.5c10.6,0,17.1-7.4,17.1-17.3c0-7.8-4-13.3-12.6-13.3h-3.2L168.3,147.7z M175.9,108h2.9
		c9.8,0,16.4-6.4,16.4-15.8c0-5.4-2.6-10.2-9.9-10.2c-1.6,0-3.4,0-4.7,0.5L175.9,108z"/>
	<path class="st0" d="M207.7,157.9l7.8-41.6c1.5-7.6,2.3-14.8,2.9-20h11c-0.1,3.3-0.4,6.6-0.9,10.9h0.4c4.2-7.7,9.7-11.9,15.3-11.9
		c0.8,0,1.5,0.1,2.1,0.2l-2.4,13c-0.5-0.1-1.4-0.1-2-0.1c-7.3,0-14,9.5-15.8,19.2l-5.7,30.2H207.7z"/>
	<path class="st0" d="M242.3,157.9L254,96.4h12.8l-11.7,61.5H242.3z M262.5,88.1c-4.2,0-6.1-3-5.9-7.2c0.1-4,3-8.3,7.6-8.3
		c4.4,0,6.4,3.3,6.3,7.2c-0.1,5.3-3.8,8.3-7.8,8.3H262.5z"/>
	<path class="st0" d="M296.2,81.1l-2.9,15.3h11.5l-1.8,9.3h-11.6l-5.8,31.3c-0.5,2.5-0.8,4.9-0.8,6.3c0,3.4,1.6,4.9,4.5,4.9
		c1.4,0,2.7,0,4-0.2l-1.4,9.7c-2.5,0.8-5.6,0.9-8.1,0.9c-8.1,0-12.4-4.6-12.4-11.9c0-2.7,0.4-5.7,1.1-9.6l5.9-31.5h-7.2l1.8-9.3h7.3
		l2-10.6L296.2,81.1z"/>
	<path class="st0" d="M337.5,155c-5.1,2.4-10.1,3.7-16.3,3.7c-14.1,0-19.2-10-19.2-22.4c0-17.4,9.6-40.9,28.3-40.9
		c10.2,0,14.5,7.7,14.7,15.5c0,16-13.3,22.4-30.3,22.1c-0.1,1.8-0.3,6.6,1,9.5c1.4,3.7,4.3,5.9,8.8,5.9c5.1,0,8.5-1.4,11.9-3.2
		L337.5,155z M333.5,112c0-3.8-1.6-6.1-4.9-6.1c-5.1,0-10,6.4-12.5,17.3c9,0.2,17.4-3.2,17.4-11.1V112z"/>
</g>
</svg>
