<svg id="Layer_1" data-name="Layer 1" xmlns="http://www.w3.org/2000/svg" viewBox="0 0 345 231"><defs><style>.cls-1{fill:#fff;}</style></defs><title>triad-logo</title><polygon class="cls-1" points="280.26 115.5 301.84 78.12 323.42 115.5 280.26 115.5"/><polygon class="cls-1" points="286.62 126.52 280.26 115.5 273.89 126.52 286.62 126.52"/><polygon class="cls-1" points="272.08 129.66 268.82 135.3 291.69 135.3 288.43 129.66 272.08 129.66"/><polygon class="cls-1" points="296.76 144.09 293.5 138.44 267.01 138.44 263.75 144.09 296.76 144.09"/><polygon class="cls-1" points="261.94 147.23 258.68 152.88 301.84 152.88 298.58 147.23 261.94 147.23"/><polygon class="cls-1" points="329.78 126.52 323.42 115.5 317.06 126.52 329.78 126.52"/><polygon class="cls-1" points="315.25 129.66 311.99 135.3 334.85 135.3 331.59 129.66 315.25 129.66"/><polygon class="cls-1" points="305.1 147.23 301.84 152.88 345 152.88 341.74 147.23 305.1 147.23"/><polygon class="cls-1" points="339.93 144.09 336.67 138.44 310.17 138.44 306.91 144.09 339.93 144.09"/><path class="cls-1" d="M16.43,100.16H0v-5.1H38.45v5.1H22V144H16.43Z"/><path class="cls-1" d="M55.79,95.06h21c6,0,10.84,1.82,13.91,4.89a13.53,13.53,0,0,1,3.78,9.65v.14c0,8.11-5.59,12.86-13.28,14.26l15,20H89.49l-14.2-19h-14v19H55.79Zm20.55,25c7.34,0,12.59-3.78,12.59-10.07v-.14c0-6-4.62-9.65-12.52-9.65H61.31V120Z"/><path class="cls-1" d="M113.81,95.06h5.53V144h-5.53Z"/><path class="cls-1" d="M158.77,94.71h5.17L186.24,144H180.3l-5.73-12.94H147.93L142.13,144h-5.67ZM172.4,126.1l-11.12-25-11.18,25Z"/><path class="cls-1" d="M202.88,95.06h17c15.38,0,26,10.56,26,24.33v.14c0,13.77-10.62,24.47-26,24.47h-17Zm17,43.83c12.37,0,20.27-8.39,20.27-19.22v-.14c0-10.84-7.9-19.37-20.27-19.37H208.4v38.73Z"/><path class="cls-1" d="M253.5,103.64a3.82,3.82,0,0,1-2.77-1.12,3.84,3.84,0,0,1,0-5.46,3.8,3.8,0,0,1,2.77-1.14,3.75,3.75,0,0,1,2.75,1.14,3.82,3.82,0,0,1,0,5.46A3.77,3.77,0,0,1,253.5,103.64Zm0-7.08a3.22,3.22,0,1,0,3.21,3.24,3.14,3.14,0,0,0-.94-2.28A3,3,0,0,0,253.5,96.56Zm2,5.62h-1.14l-.47-1.13c-.24-.55-.5-.83-.78-.83h-.28v2h-.93V97.33h1.46a2.43,2.43,0,0,1,1.4.35,1.15,1.15,0,0,1,.49,1,1.28,1.28,0,0,1-.3.85,1.56,1.56,0,0,1-.89.47v0c.27.06.54.35.81.9Zm-2.67-4.08v1.38h.53c.6,0,.89-.23.89-.69a.58.58,0,0,0-.24-.52,1.35,1.35,0,0,0-.76-.17Z"/></svg>