<svg id="Layer_1" data-name="Layer 1" xmlns="http://www.w3.org/2000/svg" viewBox="0 0 345 231">
  <title>urc-logo</title>
  <g>
    <g id="logo">
      <g id="urc">
        <path d="M317.5,75.11H256.88l-9.63,35.82a16.08,16.08,0,0,1-6.31,8.35,19,19,0,0,1-9.48,3.64h-7.14l11,32.94h61.34l1-.08a19,19,0,0,0,9.1-3.64,17,17,0,0,0,6.3-8.35l4.39-16.31H289.82l-3.49,13H266.9l13.44-50h19.43l-3.42,13H323.9l4.4-16.24a9.58,9.58,0,0,0-1.74-8.51A10.6,10.6,0,0,0,319,75.17h-.6" style="fill: #fff"/>
        <path d="M208.08,155.86,197,122.92l-8.88,32.94Z" style="fill: #fff"/>
        <path d="M205.65,90.44l-4.78,17.68H220.5l4.78-17.68Z" style="fill: #fff"/>
        <path d="M182.2,75.11H154.73l-17.61,65.35H117.61l17.53-65.35H107.67L89.3,143.8a8.49,8.49,0,0,0,1.75,8.35,10.4,10.4,0,0,0,7.06,3.64l.73.05H160.5Z" style="fill: #fff"/>
      </g>
      <g id="spinner">
        <g id="outside">
          <path d="M-1,115.54a41.57,41.57,0,0,0,12.6,30.51,42,42,0,0,0,30.66,12.67" style="fill: #fff"/>
          <path d="M42.26,158.72a41.62,41.62,0,0,0,30.51-12.67A41.63,41.63,0,0,0,85.5,115.54" style="fill: #fff"/>
          <path d="M85.5,115.54A42,42,0,0,0,72.77,84.87,41.53,41.53,0,0,0,42.26,72.28" style="fill: #fff"/>
          <path d="M42.26,72.28A41.88,41.88,0,0,0,11.6,84.87,41.89,41.89,0,0,0-1,115.54" style="fill: #fff"/>
        </g>
        <g id="inside">
          <g>
            <rect x="20.64" y="125.44" width="11.69" height="11.69" style="fill: #fff"/>
            <rect x="52.11" y="125.44" width="11.69" height="11.69" style="fill: #fff"/>
            <rect x="52.11" y="93.87" width="11.69" height="11.69" style="fill: #fff"/>
            <rect x="20.64" y="93.87" width="11.69" height="11.69" style="fill: #fff"/>
          </g>
          <rect x="28.22" y="101.51" width="28.01" height="28.01" transform="translate(-69.31 63.69) rotate(-45)" style="fill: #fff"/>
        </g>
      </g>
    </g>
    <path d="M336.21,83.39V77.63h2.45a4.35,4.35,0,0,1,1.34.15,1.36,1.36,0,0,1,.68.55,1.73,1.73,0,0,1,.25.91,1.56,1.56,0,0,1-.38,1.07,1.83,1.83,0,0,1-1.14.54,2.64,2.64,0,0,1,.62.48,6.11,6.11,0,0,1,.66.94l.71,1.12H340l-.83-1.26a8.15,8.15,0,0,0-.61-.84.88.88,0,0,0-.36-.24,2.25,2.25,0,0,0-.58-.07h-.24v2.41Zm1.17-3.32h.86a4.14,4.14,0,0,0,1.05-.08.55.55,0,0,0,.32-.24.74.74,0,0,0,.12-.43.67.67,0,0,0-.16-.47.66.66,0,0,0-.43-.23h-1.76v1.45Z" style="fill: #fff;fill-rule: evenodd"/>
    <path d="M338.43,86.26A5.57,5.57,0,1,1,344,80.69,5.57,5.57,0,0,1,338.43,86.26Zm0-10a4.44,4.44,0,1,0,4.43,4.45h0a4.44,4.44,0,0,0-4.43-4.45h0Z" style="fill: #fff"/>
  </g>
</svg>
