<svg id="Layer_1" data-name="Layer 1" xmlns="http://www.w3.org/2000/svg" viewBox="0 0 345 231">
  <title>wattbox-logo</title>
  <g>
    <polygon points="111.79 96.42 114.34 96.46 144.01 96.46 146.57 96.42 146.57 81.63 111.79 81.63 111.79 96.42" style="fill: #fff"/>
    <polygon points="151.99 96.42 154.55 96.46 184.21 96.46 186.77 96.42 186.77 81.63 151.99 81.63 151.99 96.42" style="fill: #fff"/>
    <polygon points="343.51 81.59 322.95 81.59 318.32 88.56 328.6 104.04 343.51 81.59" style="fill: #fff"/>
    <g>
      <path d="M295.89,106.69A27,27,0,0,0,294,96.41a25.06,25.06,0,0,0-5.62-8.4,26.17,26.17,0,0,0-8.67-5.62,29.64,29.64,0,0,0-21,0A25.78,25.78,0,0,0,250,88a24.11,24.11,0,0,0-5.63,8.37,28.73,28.73,0,0,0,0,20.6,24.23,24.23,0,0,0,5.63,8.33,26.09,26.09,0,0,0,8.68,5.67,29,29,0,0,0,20.92,0,26.29,26.29,0,0,0,8.66-5.6,25.83,25.83,0,0,0,5.71-8.45A26.82,26.82,0,0,0,295.89,106.69Zm-20.65,6.85a8.51,8.51,0,0,1-12.21,0,9.82,9.82,0,0,1-2.32-6.85,10.05,10.05,0,0,1,2.32-6.9,8.43,8.43,0,0,1,12.21,0,10.05,10.05,0,0,1,2.31,6.91A9.86,9.86,0,0,1,275.24,113.54Z" style="fill: #fff"/>
      <polygon points="288.74 81.59 305.84 107.38 289.78 131.59 310.31 131.59 316.11 122.86 321.91 131.59 342.47 131.59 309.27 81.59 288.74 81.59" style="fill: #fff"/>
      <path d="M231.84,105.57a9.43,9.43,0,0,0,5.75-3.54,11,11,0,0,0,2-6.81q0-6.42-4.3-10t-12-3.6H199.39v50h23.88c6.12,0,10.76-1.18,13.92-3.57s4.73-5.9,4.73-10.57a11.81,11.81,0,0,0-2.49-7.89A13.07,13.07,0,0,0,231.84,105.57ZM216.08,92.1h2.45A5.56,5.56,0,0,1,222,93a3.18,3.18,0,0,1,1.19,2.69A3.24,3.24,0,0,1,222,98.43a5.5,5.5,0,0,1-3.45.94h-2.45V92.1Zm7.43,25.65a7.34,7.34,0,0,1-4.31,1.08h-3.12v-8.3h3.12a7.49,7.49,0,0,1,4.31,1.06,3.91,3.91,0,0,1,0,6.16Z" style="fill: #fff"/>
      <polygon points="94 116 76.62 116 99.81 81.63 74.54 81.63 55.98 123.01 73.5 123.01 55.98 150.54 94 116" style="fill: #fff"/>
      <polygon points="24.57 83.67 19.71 107.33 19.56 107.33 14.21 83.49 -1.49 83.28 13.72 131.76 26.89 131.76 30.27 110.43 30.4 110.43 35.4 131.76 49.21 131.76 36.95 83.64 24.57 83.67" style="fill: #fff"/>
      <rect x="121.22" y="99.54" width="15.91" height="32.22" style="fill: #fff"/>
      <rect x="161.42" y="99.54" width="15.91" height="32.22" style="fill: #fff"/>
      <path d="M88.57,104.75c.9,3,2.66,8.48,2.66,8.48l9.79,0-7.68,7.62s3,10.65,2.94,10.89h20.28L99.62,88.37Z" style="fill: #fff"/>
      <polygon points="47.09 83.28 44.12 96 51.43 122.97 62.65 83.28 47.09 83.28" style="fill: #fff"/>
      <polygon points="71.92 118.61 92.76 86.12 59.33 121.17 68.49 121.17 70.1 121.17 78.59 121.17 66.26 138.12 86.67 118.61 71.92 118.61" style="fill: #fff"/>
    </g>
  </g>
</svg>
